<?xml version="1.0" encoding="UTF-8"?>
<svg xmlns="http://www.w3.org/2000/svg" version="1.1" width="1147" height="156" style="background-color:transparent;">
  <path d="M0 0 C378.51 0 757.02 0 1147 0 C1147 51.48 1147 102.96 1147 156 C768.49 156 389.98 156 0 156 C0 104.52 0 53.04 0 0 Z " fill="#FCFEFE" transform="translate(0,0)"/>
  <path d="M0 0 C3.3 0 6.6 0 10 0 C10 4.62 10 9.24 10 14 C12.31 14 14.62 14 17 14 C17 12.68 17 11.36 17 10 C20.63 10 24.26 10 28 10 C28 16.93 28 23.86 28 31 C29.65 31 31.3 31 33 31 C33 32.65 33 34.3 33 36 C31.02 36 29.04 36 27 36 C27 43.26 27 50.52 27 58 C23.7 58 20.4 58 17 58 C17 57.34 17 56.68 17 56 C14.69 56 12.38 56 10 56 C10 59.96 10 63.92 10 68 C15.94 68 21.88 68 28 68 C28 69.65 28 71.3 28 73 C22.06 73 16.12 73 10 73 C10 77.95 10 82.9 10 88 C16.27 88 22.54 88 29 88 C29 89.65 29 91.3 29 93 C22.73 93 16.46 93 10 93 C10 100.59 10 108.18 10 116 C6.7 116 3.4 116 0 116 C0 108.41 0 100.82 0 93 C-5.61 93 -11.22 93 -17 93 C-17 94.98 -17 96.96 -17 99 C-17.7734375 100.7634375 -17.7734375 100.7634375 -18.5625 102.5625 C-20.11727622 106.28044314 -20.22550912 107.2885205 -19 111 C-15.15549614 115.46248047 -9.9485604 117.05870921 -4.24121094 117.56933594 C1.37946801 117.88436765 6.99723251 117.88439057 12.625 117.875 C14.60289104 117.89314876 16.58075955 117.91395825 18.55859375 117.9375 C23.37268323 117.98905727 28.1856498 118.00445125 33 118 C32.96744792 119.953125 32.93489583 121.90625 32.90234375 123.859375 C33.00150201 126.03292403 33.40306149 127.91306537 34 130 C27.93524709 130.14942534 21.87158861 130.25772148 15.80541992 130.32958984 C13.74631053 130.35957922 11.68732688 130.40038551 9.62866211 130.45263672 C-12.33501449 130.99573854 -12.33501449 130.99573854 -21 124 C-21.72251953 123.43152344 -22.44503906 122.86304688 -23.18945312 122.27734375 C-24.84299634 120.90989746 -26.43136005 119.46406395 -28 118 C-28.28488281 118.72574219 -28.56976562 119.45148438 -28.86328125 120.19921875 C-29.23839844 121.12347656 -29.61351562 122.04773438 -30 123 C-30.32355469 123.81082031 -30.64710938 124.62164062 -30.98046875 125.45703125 C-32.1875 127.8125 -32.1875 127.8125 -36 132 C-40.95 132 -45.9 132 -51 132 C-51.33 105.6 -51.66 79.2 -52 52 C-54.64 56.29 -57.28 60.58 -60 65 C-61.98 65.495 -61.98 65.495 -64 66 C-61.43541364 58.03628447 -61.43541364 58.03628447 -59.828125 54.2109375 C-52.86452859 37.5756794 -51.28820971 19.83153436 -50 2 C-45.71 2 -41.42 2 -37 2 C-36.875 11.5 -36.875 11.5 -38 16 C-34.7 16 -31.4 16 -28 16 C-28 13.03 -28 10.06 -28 7 C-24.37 7 -20.74 7 -17 7 C-16.97287675 9.87506421 -16.95310149 12.74986908 -16.9375 15.625 C-16.92912109 16.43324219 -16.92074219 17.24148437 -16.91210938 18.07421875 C-16.90888672 18.86699219 -16.90566406 19.65976562 -16.90234375 20.4765625 C-16.89710693 21.19924316 -16.89187012 21.92192383 -16.88647461 22.66650391 C-17.02265714 25.46571381 -17.53926845 28.2356107 -18 31 C-12.06 31 -6.12 31 0 31 C0 27.37 0 23.74 0 20 C-4.62 20 -9.24 20 -14 20 C-14 18.02 -14 16.04 -14 14 C-9.38 14 -4.76 14 0 14 C0 9.38 0 4.76 0 0 Z " fill="#0CA0B5" transform="translate(661,9)"/>
  <path d="M0 0 C0.78375 0.495 1.5675 0.99 2.375 1.5 C3.468125 2.03625 4.56125 2.5725 5.6875 3.125 C6.574375 3.57875 7.46125 4.0325 8.375 4.5 C8.705 3.84 9.035 3.18 9.375 2.5 C13.005 2.5 16.635 2.5 20.375 2.5 C20.87 6.46 20.87 6.46 21.375 10.5 C23.98074338 9.37854082 26.58459056 8.25300203 29.1875 7.125 C29.92548828 6.80789062 30.66347656 6.49078125 31.42382812 6.1640625 C32.49213867 5.7 32.49213867 5.7 33.58203125 5.2265625 C34.56393433 4.80238037 34.56393433 4.80238037 35.56567383 4.36962891 C37.63822799 3.42527087 37.63822799 3.42527087 40.375 1.5 C44.18385188 1.5 46.04730566 2.89070876 48.6875 5.4375 C51.375 8.19269521 51.375 8.19269521 51.375 10.5 C45.15583296 13.60958352 36.59691839 12.62669152 29.8125 12.5625 C26.698125 12.541875 23.58375 12.52125 20.375 12.5 C20.375 21.08 20.375 29.66 20.375 38.5 C31.265 38.5 42.155 38.5 53.375 38.5 C53.375 40.48 53.375 42.46 53.375 44.5 C49.745 44.5 46.115 44.5 42.375 44.5 C42.375 72.88 42.375 101.26 42.375 130.5 C38.745 130.5 35.115 130.5 31.375 130.5 C31.375 101.79 31.375 73.08 31.375 43.5 C27.745 43.5 24.115 43.5 20.375 43.5 C20.39071045 45.35963379 20.39071045 45.35963379 20.40673828 47.25683594 C20.44326319 51.90866139 20.46601736 56.56047448 20.48486328 61.21240234 C20.49484748 63.21600484 20.50843955 65.21959305 20.52587891 67.22314453 C20.76463039 95.38177561 20.76463039 95.38177561 14.875 106.5 C14.53041748 107.1693457 14.18583496 107.83869141 13.83081055 108.52832031 C9.34660364 116.88185951 3.26540729 125.11388466 -4.625 130.5 C-5.945 130.5 -7.265 130.5 -8.625 130.5 C-7.36846466 126.89166054 -5.66539968 123.9352953 -3.50195312 120.79345703 C4.97104509 108.46308812 8.46397587 95.98305415 8.58032227 81.06445312 C8.59022186 80.26349213 8.60012146 79.46253113 8.61032104 78.63729858 C8.64163264 76.01864466 8.666572 73.39997266 8.69140625 70.78125 C8.71200206 68.95421914 8.73299918 67.12719275 8.75437927 65.3001709 C8.80932881 60.51301729 8.85885663 55.72582264 8.90722656 50.93859863 C8.95764075 46.0449665 9.01322241 41.1513933 9.06835938 36.2578125 C9.17560879 26.67192546 9.27712623 17.08598704 9.375 7.5 C8.64923264 7.63703339 7.92346527 7.77406677 7.17570496 7.91525269 C2.28739986 8.82397493 -2.55273745 9.71205045 -7.51171875 10.1328125 C-8.37756592 10.20902832 -9.24341309 10.28524414 -10.13549805 10.36376953 C-11.70811401 10.49307861 -11.70811401 10.49307861 -13.3125 10.625 C-16.715625 10.91375 -20.11875 11.2025 -23.625 11.5 C-23.625 20.08 -23.625 28.66 -23.625 37.5 C-19.335 37.5 -15.045 37.5 -10.625 37.5 C-10.625 34.86 -10.625 32.22 -10.625 29.5 C-6.995 29.5 -3.365 29.5 0.375 29.5 C0.375 50.62 0.375 71.74 0.375 93.5 C-2.925 93.5 -6.225 93.5 -9.625 93.5 C-9.625 90.53 -9.625 87.56 -9.625 84.5 C-14.245 84.5 -18.865 84.5 -23.625 84.5 C-23.563125 85.758125 -23.50125 87.01625 -23.4375 88.3125 C-23.52180764 101.88603059 -30.6501105 117.64528929 -38.625 128.5 C-39.615 128.83 -40.605 129.16 -41.625 129.5 C-40.87117372 122.08737496 -40.87117372 122.08737496 -39.69868469 119.28979492 C-34.59923455 106.03970371 -35.15449569 91.451151 -35.11328125 77.5 C-35.09639794 75.32567353 -35.07824293 73.15135661 -35.05888367 70.97705078 C-35.01177374 65.30882756 -34.98171363 59.64064303 -34.95544434 53.97229004 C-34.92543998 48.16634481 -34.87897894 42.36053248 -34.83398438 36.5546875 C-34.74839611 25.20319509 -34.6808551 13.85167499 -34.625 2.5 C-30.995 2.5 -27.365 2.5 -23.625 2.5 C-23.625 4.81 -23.625 7.12 -23.625 9.5 C-14.49312152 6.31163929 -14.49312152 6.31163929 -6.125 1.5625 C-2.94356056 -0.5606782 -2.94356056 -0.5606782 0 0 Z " fill="#0BA0B5" transform="translate(1070.625,11.5)"/>
  <path d="M0 0 C3.63 0 7.26 0 11 0 C10.66692102 7.4387639 8.9992499 13.18021483 6.05859375 20.01953125 C4.98672799 23.03736733 4.38776079 24.85507895 5 28 C7.10808622 30.09683116 7.10808622 30.09683116 9.875 31.75 C10.77992188 32.34296875 11.68484375 32.9359375 12.6171875 33.546875 C16.16890443 35.71284008 18.47405148 36.2246321 22.625 36.5625 C23.62789063 36.64628906 24.63078125 36.73007813 25.6640625 36.81640625 C26.43492187 36.87699219 27.20578125 36.93757813 28 37 C28 38.65 28 40.3 28 42 C38.89 42 49.78 42 61 42 C61 40.35 61 38.7 61 37 C64.96 37 68.92 37 73 37 C73 59.44 73 81.88 73 105 C69.04 105 65.08 105 61 105 C61 102.69 61 100.38 61 98 C50.11 98 39.22 98 28 98 C28 100.31 28 102.62 28 105 C24.04 105 20.08 105 16 105 C15.67 84.54 15.34 64.08 15 43 C14.34 43.99 13.68 44.98 13 46 C12.01 46 11.02 46 10 46 C7.525 41.545 7.525 41.545 5 37 C4.34 59.44 3.68 81.88 3 105 C-0.63 105 -4.26 105 -8 105 C-8.33 83.55 -8.66 62.1 -9 40 C-11.64 43.3 -14.28 46.6 -17 50 C-18.98 50.495 -18.98 50.495 -21 51 C-19.37312664 47.52214318 -17.33851888 44.40527618 -15.25 41.1875 C-9.15127776 31.51740383 -5.43120788 20.86549162 -2 10 C-7.94 10 -13.88 10 -20 10 C-20 8.68 -20 7.36 -20 6 C-13.4 6 -6.8 6 0 6 C0 4.02 0 2.04 0 0 Z " fill="#10A2B7" transform="translate(329,37)"/>
  <path d="M0 0 C4.62 0 9.24 0 14 0 C13 6 13 6 11 11 C23.87 11 36.74 11 50 11 C50 12.65 50 14.3 50 16 C36.14 16.33 22.28 16.66 8 17 C7.01 19.475 7.01 19.475 6 22 C6.99 22 7.98 22 9 22 C9 23.65 9 25.3 9 27 C16.92 27 24.84 27 33 27 C33 25.35 33 23.7 33 22 C36.63 22 40.26 22 44 22 C44 38.83 44 55.66 44 73 C43.01 73 42.02 73 41 73 C41.0825 73.886875 41.165 74.77375 41.25 75.6875 C41.21175923 85.17121131 36.6505729 94.26715892 32.26953125 102.44140625 C31.16479065 104.66788345 30.47368937 106.57448215 30 109 C35.37203286 110.90497619 40.6378556 112.44960909 46.25 113.47265625 C46.8275 113.64667969 47.405 113.82070312 48 114 C48.33 114.66 48.66 115.32 49 116 C48.69320312 116.57234375 48.38640625 117.1446875 48.0703125 117.734375 C46.67318854 120.69179068 46.80426258 122.99607854 46.875 126.25 C46.89304687 127.32765625 46.91109375 128.4053125 46.9296875 129.515625 C46.95289063 130.33546875 46.97609375 131.1553125 47 132 C37.36481219 129.52943902 30.10464108 122.61756167 23 116 C19.12987593 117.45040725 15.60651279 119.243237 12 121.2578125 C10.2984375 122.19560547 10.2984375 122.19560547 8.5625 123.15234375 C6.77590042 124.13959743 4.99126769 125.12989763 3.2109375 126.12841797 C1.4792472 127.0977259 -0.26030019 128.05295454 -2 129.0078125 C-3.03125 129.58160645 -4.0625 130.15540039 -5.125 130.74658203 C-8.04119833 132.0179613 -9.86371906 132.27601002 -13 132 C-11.00080735 129.88001251 -9.05867755 128.29128793 -6.55859375 126.80078125 C-5.56569336 126.19919189 -5.56569336 126.19919189 -4.55273438 125.58544922 C-3.85470703 125.16537598 -3.15667969 124.74530273 -2.4375 124.3125 C4.12894559 120.29686597 10.15688288 116.02845175 16 111 C15.42334609 106.2128572 13.35917004 102.74871176 10.9375 98.6875 C10.56044922 98.04232422 10.18339844 97.39714844 9.79492188 96.73242188 C8.86962507 95.15121848 7.93567319 93.5750854 7 92 C6.64550781 92.57105469 6.29101562 93.14210938 5.92578125 93.73046875 C0.5967428 101.84660721 -6.03184849 108.31476592 -13 115 C-13.66 114.34 -14.32 113.68 -15 113 C-14.56429688 112.42894531 -14.12859375 111.85789062 -13.6796875 111.26953125 C-8.75913756 104.57034097 -5.23507401 97.64198597 -2 90 C-1.63777344 89.17757812 -1.27554687 88.35515625 -0.90234375 87.5078125 C0.15039847 84.58200945 0.65246971 81.75894691 1.125 78.6875 C1.29257812 77.61886719 1.46015625 76.55023438 1.6328125 75.44921875 C1.75398438 74.64097656 1.87515625 73.83273438 2 73 C0.68 73 -0.64 73 -2 73 C-2 61.12 -2 49.24 -2 37 C-2.66 37 -3.32 37 -4 37 C-4.268125 37.9075 -4.53625 38.815 -4.8125 39.75 C-5.90634962 42.74369369 -6.80423486 44.71640425 -9 47 C-9.99 47 -10.98 47 -12 47 C-11.34467495 42.7838123 -9.89503828 39.27423931 -8.1875 35.375 C-3.4664642 24.11015112 -1.38869717 12.0857902 0 0 Z " fill="#0CA0B5" transform="translate(497,10)"/>
  <path d="M0 0 C3.96 0 7.92 0 12 0 C12 2.31 12 4.62 12 7 C16.29 7 20.58 7 25 7 C25 5.02 25 3.04 25 1 C28.63 1 32.26 1 36 1 C36 31.69 36 62.38 36 94 C32.37 94 28.74 94 25 94 C25 92.35 25 90.7 25 89 C20.71 89 16.42 89 12 89 C12 92.96 12 96.92 12 101 C8.04 101 4.08 101 0 101 C0 67.67 0 34.34 0 0 Z " fill="#11A2B7" transform="translate(166,16)"/>
  <path d="M0 0 C3.96 0 7.92 0 12 0 C12 2.31 12 4.62 12 7 C18.6 7 25.2 7 32 7 C32 4.69 32 2.38 32 0 C35.63 0 39.26 0 43 0 C43.09265284 15.41199171 43.16400753 30.82394274 43.20724869 46.23614693 C43.22786131 53.39255386 43.25595675 60.54878441 43.30175781 67.70507812 C43.34166576 73.94356909 43.36744227 80.1819323 43.37635398 86.42054737 C43.38156218 89.72298191 43.39588259 93.02496642 43.42292023 96.32730484 C43.45192788 100.01676413 43.45595692 103.70546468 43.45410156 107.39501953 C43.46848267 108.48618576 43.48286377 109.57735199 43.49768066 110.70158386 C43.46455735 116.78289611 43.09465003 120.38517049 39 125 C34.17130121 128.45302744 29.17347171 129.37251445 23.3515625 129.07421875 C19.20739203 128.94342267 15.1111008 129.51937026 11 130 C11 129.34 11 128.68 11 128 C13.60391539 127.02016072 16.20811968 126.04110206 18.8125 125.0625 C19.55048828 124.78470703 20.28847656 124.50691406 21.04882812 124.22070312 C21.76103516 123.95322266 22.47324219 123.68574219 23.20703125 123.41015625 C23.8616333 123.16402588 24.51623535 122.91789551 25.19067383 122.66430664 C26.78311815 122.07962967 28.39066676 121.53644441 30 121 C30.33 85.03 30.66 49.06 31 12 C24.4 12 17.8 12 11 12 C11 21.24 11 30.48 11 40 C16.28 40 21.56 40 27 40 C27 41.65 27 43.3 27 45 C21.72 45 16.44 45 11 45 C11 54.24 11 63.48 11 73 C15.62 73 20.24 73 25 73 C25 74.65 25 76.3 25 78 C20.71 78 16.42 78 12 78 C12.0825 79.216875 12.165 80.43375 12.25 81.6875 C12.1628901 100.212873 0.00181408 113.99818592 -12.30859375 126.30859375 C-17.25186556 130.95283966 -17.25186556 130.95283966 -20.7265625 131.171875 C-21.47679687 131.11515625 -22.22703125 131.0584375 -23 131 C-20.16681517 127.13199943 -17.36531505 123.35586438 -14.0625 119.875 C-5.26193354 109.75434857 -0.54457343 95.66137872 -0.56762695 82.41943359 C-0.5574353 81.52064484 -0.54724365 80.62185608 -0.53674316 79.6958313 C-0.50686128 76.76330125 -0.4973855 73.83109913 -0.48828125 70.8984375 C-0.47141614 68.85005631 -0.45326345 66.80168536 -0.43388367 64.75332642 C-0.38657658 59.39079995 -0.3566427 54.028315 -0.33044434 48.66564941 C-0.30054109 43.18196418 -0.25404448 37.69842168 -0.20898438 32.21484375 C-0.12317092 21.47663747 -0.05572837 10.73840164 0 0 Z " fill="#10A2B6" transform="translate(212,12)"/>
  <path d="M0 0 C3.96 0 7.92 0 12 0 C10.82474697 5.99379043 9.21623412 8.42023149 4 12 C2.34630643 12.69822617 0.68272986 13.37498605 -1 14 C-1.33 14.66 -1.66 15.32 -2 16 C1.96 16 5.92 16 10 16 C10 15.01 10 14.02 10 13 C13.3 13 16.6 13 20 13 C20.0695093 26.71702667 20.12281616 40.43401144 20.15543652 54.15117836 C20.17109261 60.52060797 20.1923302 66.88991708 20.22631836 73.25927734 C20.25891329 79.40601155 20.27685344 85.55262985 20.28463173 91.69944382 C20.29017495 94.04459838 20.30099944 96.38974661 20.31719017 98.73485184 C20.33896575 102.01950035 20.34196681 105.30366983 20.34057617 108.58837891 C20.351362 109.55798553 20.36214783 110.52759216 20.3732605 111.52658081 C20.34920002 116.77828747 19.96095776 120.466213 17 125 C12.37424623 129.12498409 7.59698414 131.375 1.375 131.375 C-0.08563467 131.28062053 -1.54588541 131.16706848 -3 131 C-0.26123474 128.03731053 2.78060886 126.26822351 6.2578125 124.28125 C8.31060985 123.02968283 8.31060985 123.02968283 9 120 C9.08209792 118.22686149 9.10746294 116.45079225 9.09765625 114.67578125 C9.09443359 113.64775391 9.09121094 112.61972656 9.08789062 111.56054688 C9.07951172 110.48869141 9.07113281 109.41683594 9.0625 108.3125 C9.05798828 107.22904297 9.05347656 106.14558594 9.04882812 105.02929688 C9.03703743 102.35280915 9.02058063 99.67643223 9 97 C8.50902832 97.7007666 8.01805664 98.4015332 7.51220703 99.12353516 C2.26660935 106.56969668 -3.49923598 113.46477879 -9.52441406 120.28710938 C-10.56439051 121.49433551 -11.57435804 122.7277357 -12.56152344 123.97851562 C-13.07489258 124.61982422 -13.58826172 125.26113281 -14.1171875 125.921875 C-14.57464355 126.5106543 -15.03209961 127.09943359 -15.50341797 127.70605469 C-17 129 -17 129 -21 129 C-19.62790802 125.74618188 -17.64797773 123.30970966 -15.36962891 120.63647461 C-5.13156409 108.49077173 0.69799124 93.84029587 6 79 C4.93072266 79.68835938 4.93072266 79.68835938 3.83984375 80.390625 C-11.15966387 90 -11.15966387 90 -15 90 C-15 86.04 -15 82.08 -15 78 C-13.68 78 -12.36 78 -11 78 C-11.00222061 77.18789566 -11.00444122 76.37579132 -11.00672913 75.53907776 C-11.02673071 67.90171052 -11.04197345 60.2643559 -11.05181217 52.62696934 C-11.05704031 48.70011342 -11.06413669 44.77327906 -11.07543945 40.84643555 C-11.0862708 37.05985743 -11.09227736 33.2733001 -11.09487724 29.48670769 C-11.09673105 28.03895681 -11.10035081 26.59120712 -11.10573006 25.14346504 C-11.11294367 23.12242865 -11.11340808 21.10137152 -11.11352539 19.08032227 C-11.115746 17.92782486 -11.11796661 16.77532745 -11.12025452 15.58790588 C-11 13 -11 13 -10 12 C-7.32941149 11.85884839 -4.67567762 11.95752893 -2 12 C-1.34 8.04 -0.68 4.08 0 0 Z " fill="#0CA0B5" transform="translate(71,10)"/>
  <path d="M0 0 C3.3 0 6.6 0 10 0 C10 11.55 10 23.1 10 35 C14.62 35 19.24 35 24 35 C24 32.36 24 29.72 24 27 C27.63 27 31.26 27 35 27 C35 48.12 35 69.24 35 91 C31.7 91 28.4 91 25 91 C25 88.03 25 85.06 25 82 C20.38 82 15.76 82 11 82 C11.061875 83.258125 11.12375 84.51625 11.1875 85.8125 C11.10319236 99.38603059 3.9748895 115.14528929 -4 126 C-5.485 126.495 -5.485 126.495 -7 127 C-6.24617372 119.58737496 -6.24617372 119.58737496 -5.07368469 116.78979492 C0.02576545 103.53970371 -0.52949569 88.951151 -0.48828125 75 C-0.47139794 72.82567353 -0.45324293 70.65135661 -0.43388367 68.47705078 C-0.38677374 62.80882756 -0.35671363 57.14064303 -0.33044434 51.47229004 C-0.30043998 45.66634481 -0.25397894 39.86053248 -0.20898438 34.0546875 C-0.12339611 22.70319509 -0.0558551 11.35167499 0 0 Z " fill="#0A9FB4" transform="translate(1036,14)"/>
  <path d="M0 0 C3.90529929 1.13288862 7.53450813 2.82058673 11.16796875 4.62890625 C8.90498647 7.21000744 6.9879199 8.27819669 3.73046875 9.31640625 C2.96863281 9.56777344 2.20679688 9.81914062 1.421875 10.078125 C-0.83203125 10.62890625 -0.83203125 10.62890625 -4.83203125 10.62890625 C-4.83203125 19.20890625 -4.83203125 27.78890625 -4.83203125 36.62890625 C0.77796875 36.62890625 6.38796875 36.62890625 12.16796875 36.62890625 C12.16796875 38.27890625 12.16796875 39.92890625 12.16796875 41.62890625 C6.55796875 41.62890625 0.94796875 41.62890625 -4.83203125 41.62890625 C-4.50684172 47.31972298 -4.10966492 50.29469166 -0.09765625 54.484375 C3.39990219 57.49005594 7.03213277 60.56098826 11.16796875 62.62890625 C11.37989096 67.82100029 10.75923765 71.75564525 9.16796875 76.62890625 C4.65557534 75.15526426 3.06315324 71.62027191 0.91796875 67.69140625 C0.55445313 67.05783203 0.1909375 66.42425781 -0.18359375 65.77148438 C-1.80909912 62.86574076 -2.83203125 61.00895037 -2.83203125 57.62890625 C-3.49203125 57.62890625 -4.15203125 57.62890625 -4.83203125 57.62890625 C-4.83203125 81.38890625 -4.83203125 105.14890625 -4.83203125 129.62890625 C-8.46203125 129.62890625 -12.09203125 129.62890625 -15.83203125 129.62890625 C-16.49203125 111.47890625 -17.15203125 93.32890625 -17.83203125 74.62890625 C-22.12203125 81.22890625 -26.41203125 87.82890625 -30.83203125 94.62890625 C-32.81203125 95.61890625 -32.81203125 95.61890625 -34.83203125 96.62890625 C-34.2238487 92.31561162 -32.64473449 89.13240725 -30.58203125 85.31640625 C-23.46450464 71.54113686 -20.61017114 56.7767528 -17.83203125 41.62890625 C-23.11203125 41.62890625 -28.39203125 41.62890625 -33.83203125 41.62890625 C-33.83203125 39.97890625 -33.83203125 38.32890625 -33.83203125 36.62890625 C-27.89203125 36.62890625 -21.95203125 36.62890625 -15.83203125 36.62890625 C-15.83203125 28.70890625 -15.83203125 20.78890625 -15.83203125 12.62890625 C-17.81203125 13.28890625 -19.79203125 13.94890625 -21.83203125 14.62890625 C-24.82421875 14.82421875 -24.82421875 14.82421875 -27.70703125 14.75390625 C-28.67382812 14.73585938 -29.640625 14.7178125 -30.63671875 14.69921875 C-31.72339844 14.66441406 -31.72339844 14.66441406 -32.83203125 14.62890625 C-30.67639441 12.24485198 -28.76777592 10.96736354 -25.8125 9.7265625 C-24.64944336 9.22672852 -24.64944336 9.22672852 -23.46289062 8.71679688 C-22.65658203 8.37841797 -21.85027344 8.04003906 -21.01953125 7.69140625 C-14.51139828 4.99426541 -14.51139828 4.99426541 -8.49609375 1.375 C-5.40869687 -0.64855778 -3.60099172 -0.66169093 0 0 Z " fill="#089FB4" transform="translate(776.83203125,11.37109375)"/>
  <path d="M0 0 C4.29 0 8.58 0 13 0 C13.125 9.5 13.125 9.5 12 14 C15.3 14 18.6 14 22 14 C22 11.03 22 8.06 22 5 C25.63 5 29.26 5 33 5 C33.02712325 7.87506421 33.04689851 10.74986908 33.0625 13.625 C33.07087891 14.43324219 33.07925781 15.24148437 33.08789062 16.07421875 C33.09111328 16.86699219 33.09433594 17.65976562 33.09765625 18.4765625 C33.10289307 19.19924316 33.10812988 19.92192383 33.11352539 20.66650391 C32.97734286 23.46571381 32.46073155 26.2356107 32 29 C37.94 29 43.88 29 50 29 C50 25.37 50 21.74 50 18 C50.33 18 50.66 18 51 18 C51 21.96 51 25.92 51 30 C46.38 30.33 41.76 30.66 37 31 C37 31.33 37 31.66 37 32 C39.97 32.33 42.94 32.66 46 33 C46 33.33 46 33.66 46 34 C44.96359375 34.02578125 43.9271875 34.0515625 42.859375 34.078125 C41.48954199 34.13441951 40.11975195 34.19176655 38.75 34.25 C38.06808594 34.26417969 37.38617187 34.27835938 36.68359375 34.29296875 C33.35886824 34.45436319 31.3735102 34.70376777 28.734375 36.796875 C28.16203125 37.52390625 27.5896875 38.2509375 27 39 C26.4121875 39.66 25.824375 40.32 25.21875 41 C24.6515625 41.66 24.084375 42.32 23.5 43 C21.09299054 45.77453133 18.65199626 48.45408359 16 51 C18.64 51.33 21.28 51.66 24 52 C24 52.33 24 52.66 24 53 C23.05125 53.144375 22.1025 53.28875 21.125 53.4375 C18.1065506 53.82935399 18.1065506 53.82935399 16 55 C16 55.66 16 56.32 16 57 C15.34 57 14.68 57 14 57 C13.55721271 51.68655249 14.40395026 48.79481548 16.9140625 44.1484375 C20.94530309 36.17296152 21.59969167 27.80678336 22 19 C18.37 19.33 14.74 19.66 11 20 C8.69 25.28 6.38 30.56 4 36 C5.98 36 7.96 36 10 36 C9.99333817 37.72221268 9.99333817 37.72221268 9.98654175 39.47921753 C9.94606209 50.28023296 9.91604761 61.08123308 9.89637566 71.88230705 C9.88592226 77.43573026 9.87173477 82.98909241 9.84912109 88.54248047 C9.82744808 93.89816008 9.8154431 99.25378082 9.81024551 104.60950089 C9.80653977 106.65651502 9.79930376 108.7035258 9.78853989 110.75051498 C9.77409858 113.60962733 9.77201896 116.46849399 9.77294922 119.32763672 C9.76575867 120.18071411 9.75856812 121.0337915 9.75115967 121.91271973 C9.56660927 126.43105464 9.56660927 126.43105464 12 130 C7.71 130 3.42 130 -1 130 C-1.33 103.6 -1.66 77.2 -2 50 C-4.64 54.29 -7.28 58.58 -10 63 C-11.98 63.495 -11.98 63.495 -14 64 C-11.43541364 56.03628447 -11.43541364 56.03628447 -9.828125 52.2109375 C-2.86452859 35.5756794 -1.28820971 17.83153436 0 0 Z " fill="#099FB4" transform="translate(611,11)"/>
  <path d="M0 0 C3.3 0 6.6 0 10 0 C10 25.41 10 50.82 10 77 C16.435 76.505 16.435 76.505 23 76 C23 77.32 23 78.64 23 80 C18.73383684 81.13764351 15.43513689 82 11 82 C11 98.17 11 114.34 11 131 C7.04 131 3.08 131 -1 131 C-1 115.49 -1 99.98 -1 84 C-7.6 84.99 -14.2 85.98 -21 87 C-26.35789122 87.76541303 -30.70518291 88.09289153 -36 88 C-36 86.35 -36 84.7 -36 83 C-31.98055657 82.42502921 -27.96037492 81.85555765 -23.93945312 81.29101562 C-22.57368312 81.09848986 -21.20811831 80.90450229 -19.84277344 80.70898438 C-17.87230054 80.4270773 -15.90099876 80.15098358 -13.9296875 79.875 C-12.74616699 79.70742187 -11.56264648 79.53984375 -10.34326172 79.3671875 C-7.19519719 79.02143834 -4.16356144 78.93260056 -1 79 C-1.00580078 77.83573486 -1.01160156 76.67146973 -1.01757812 75.47192383 C-1.07034314 59.53962898 -0.79354224 43.61659921 -0.5 27.6875 C-0.45144103 24.98893907 -0.40344862 22.29036816 -0.35546875 19.59179688 C-0.23893209 13.06116121 -0.1201142 6.5305708 0 0 Z " fill="#099FB4" transform="translate(816,10)"/>
  <path d="M0 0 C3.3 0 6.6 0 10 0 C10 18.81 10 37.62 10 57 C6.7 57 3.4 57 0 57 C0 53.7 0 50.4 0 47 C-3.96 47 -7.92 47 -12 47 C-12 50.63 -12 54.26 -12 58 C-15.3 58 -18.6 58 -22 58 C-22 39.19 -22 20.38 -22 1 C-18.7 1 -15.4 1 -12 1 C-12 3.64 -12 6.28 -12 9 C-8.04 9 -4.08 9 0 9 C0 6.03 0 3.06 0 0 Z " fill="#059EB3" transform="translate(913,80)"/>
  <path d="M0 0 C3.3 0 6.6 0 10 0 C10 9.9 10 19.8 10 30 C11.65 30 13.3 30 15 30 C15 31.65 15 33.3 15 35 C13.35 35 11.7 35 10 35 C10.00888245 36.07883957 10.01776489 37.15767914 10.0269165 38.26921082 C10.10800466 48.43645021 10.16796656 58.603624 10.20724869 68.7711134 C10.22812301 73.99834356 10.25643808 79.22531266 10.30175781 84.45239258 C10.34522071 89.49688088 10.36913827 94.54111809 10.37950897 99.58577919 C10.38689952 101.51032781 10.40133154 103.4348627 10.42292023 105.35930443 C10.45196014 108.05518663 10.45595577 110.75003147 10.45410156 113.44604492 C10.47567322 114.63935173 10.47567322 114.63935173 10.49768066 115.85676575 C10.46010803 120.90574343 9.57796428 123.43916071 6 127 C1.76929328 131.11937233 -1.69511073 131.24427431 -7.375 131.25 C-9.58397735 131.18597167 -11.79277723 131.10884934 -14 131 C-11.36849048 128.36849048 -8.49748882 127.41454081 -5.09375 126 C-2.84807237 125.07028451 -2.84807237 125.07028451 -1 123 C-0.6706462 121.0631387 -0.6706462 121.0631387 -0.68115234 118.82568359 C-0.66128265 117.96494232 -0.64141296 117.10420105 -0.62094116 116.21737671 C-0.60938995 115.28712677 -0.59783875 114.35687683 -0.5859375 113.3984375 C-0.56657135 112.44683746 -0.5472052 111.49523743 -0.5272522 110.51480103 C-0.46735868 107.46829253 -0.42103205 104.42174646 -0.375 101.375 C-0.33682921 99.3124833 -0.29777802 97.2499827 -0.2578125 95.1875 C-0.16164914 90.12513034 -0.07765437 85.06268605 0 80 C-0.66 80 -1.32 80 -2 80 C-2.33 81.32 -2.66 82.64 -3 84 C-3.99 84 -4.98 84 -6 84 C-8.60664613 73.09798944 -10.16582923 63.22111099 -10 52 C-9.34 52 -8.68 52 -8 52 C-7.01934513 54.27020102 -6.0404231 56.54112254 -5.0625 58.8125 C-4.78470703 59.45509766 -4.50691406 60.09769531 -4.22070312 60.75976562 C-3.0481189 63.48637715 -1.93910451 66.18268646 -1 69 C-0.67 57.78 -0.34 46.56 0 35 C-3.63 35 -7.26 35 -11 35 C-11 33.35 -11 31.7 -11 30 C-7.37 30 -3.74 30 0 30 C0 20.1 0 10.2 0 0 Z " fill="#079EB3" transform="translate(104,10)"/>
  <path d="M0 0 C3.63 0 7.26 0 11 0 C11 1.32 11 2.64 11 4 C19.25 4 27.5 4 36 4 C36 2.68 36 1.36 36 0 C39.63 0 43.26 0 47 0 C47 11.88 47 23.76 47 36 C43.37 36 39.74 36 36 36 C36 34.68 36 33.36 36 32 C27.75 32 19.5 32 11 32 C11 33.32 11 34.64 11 36 C7.37 36 3.74 36 0 36 C0 24.12 0 12.24 0 0 Z " fill="#0DA1B6" transform="translate(350,31)"/>
  <path d="M0 0 C2.64 0 5.28 0 8 0 C8 2.31 8 4.62 8 7 C10.64 7 13.28 7 16 7 C16 4.69 16 2.38 16 0 C18.64 0 21.28 0 24 0 C24 17.49 24 34.98 24 53 C21.36 53 18.72 53 16 53 C16 50.36 16 47.72 16 45 C13.36 45 10.72 45 8 45 C8 49.62 8 54.24 8 59 C5.36 59 2.72 59 0 59 C0 39.53 0 20.06 0 0 Z " fill="#069EB4" transform="translate(29,81)"/>
  <path d="M0 0 C3.63 0 7.26 0 11 0 C11.59540126 10.10528246 10.75504731 19.78760555 5.40625 28.63671875 C3.58468382 31.69796192 3.34417927 34.48937143 3 38 C3.99 37.505 3.99 37.505 5 37 C7.64 37 10.28 37 13 37 C13 50.86 13 64.72 13 79 C12.34 79 11.68 79 11 79 C10.01517124 76.12682985 9.0370007 73.25167255 8.0625 70.375 C7.78470703 69.56675781 7.50691406 68.75851563 7.22070312 67.92578125 C5.77046784 63.62749354 4.57796018 59.52125812 4 55 C3.72246433 62.31042884 4.50927368 69.02660057 5.9375 76.1875 C6.47474013 78.97241617 7.00906487 81.75759949 7.52978516 84.5456543 C7.92932474 86.63110154 8.37571734 88.70748538 8.83203125 90.78125 C9.04754439 94.91108313 7.9247602 96.83376772 5.75 100.3125 C5.12609375 101.33988281 4.5021875 102.36726563 3.859375 103.42578125 C2 106 2 106 -1 108 C-2.59932836 104.80134327 -2.1382478 101.33118912 -2.12939453 97.81835938 C-2.13114685 96.97271927 -2.13289917 96.12707916 -2.13470459 95.2558136 C-2.13911713 92.45177172 -2.1361872 89.64779256 -2.1328125 86.84375 C-2.13348571 84.90083809 -2.13445588 82.95792627 -2.13571167 81.01501465 C-2.13718783 76.93952636 -2.13503669 72.86405997 -2.13037109 68.78857422 C-2.12467386 63.55596932 -2.1279533 58.3234157 -2.13394356 53.09081268 C-2.13755136 49.07777518 -2.13640957 45.0647499 -2.13381577 41.05171204 C-2.13314711 39.12193292 -2.1339728 37.19215271 -2.13629532 35.26237488 C-2.13882541 32.56876674 -2.13497616 29.87524249 -2.12939453 27.18164062 C-2.13243088 25.97686821 -2.13243088 25.97686821 -2.13552856 24.74775696 C-2.1142641 19.22852821 -2.1142641 19.22852821 -1 17 C-2.98 17 -4.96 17 -7 17 C-6.37954537 12.76677156 -4.89476441 9.47709705 -2.9375 5.6875 C-2.38964844 4.61886719 -1.84179688 3.55023438 -1.27734375 2.44921875 C-0.64505859 1.23685547 -0.64505859 1.23685547 0 0 Z " fill="#F2FAFB" transform="translate(622,30)"/>
  <path d="M0 0 C4.62 0 9.24 0 14 0 C13.06666423 2.54326447 12.12848392 5.08456588 11.1875 7.625 C10.79594727 8.69427734 10.79594727 8.69427734 10.39648438 9.78515625 C8.83035219 14.00017866 7.09518176 18.01097526 5 22 C5.99 22 6.98 22 8 22 C8 47.74 8 73.48 8 100 C4.7 100 1.4 100 -2 100 C-2 77.56 -2 55.12 -2 32 C-2.66 32 -3.32 32 -4 32 C-4.26039063 32.71542969 -4.52078125 33.43085937 -4.7890625 34.16796875 C-6.06042529 37.1413172 -7.56047309 39.63825182 -9.375 42.3125 C-9.96023438 43.19550781 -10.54546875 44.07851562 -11.1484375 44.98828125 C-11.75945312 45.65214844 -12.37046875 46.31601563 -13 47 C-14.32 47 -15.64 47 -17 47 C-15.71491615 43.54062736 -14.19346518 40.59098593 -12.1875 37.5 C-5.12986676 25.80596537 -2.50372925 13.24598658 0 0 Z " fill="#069DB3" transform="translate(473,41)"/>
  <path d="M0 0 C4.29 0 8.58 0 13 0 C13.04125 1.7325 13.0825 3.465 13.125 5.25 C14.00469108 15.61080604 19.18375753 25.13874956 27 32 C30.58214338 34.53170404 34.21986488 36.75991993 38 39 C37.01 44.61 36.02 50.22 35 56 C20.66406884 46.44271256 14.72885212 31.02808051 10 15 C9.3709375 16.16015625 8.741875 17.3203125 8.09375 18.515625 C-7.75686588 47.54498478 -7.75686588 47.54498478 -16 53 C-18.11621094 52.5769043 -18.11621094 52.5769043 -20 52 C-19.69296143 51.49774902 -19.38592285 50.99549805 -19.06958008 50.47802734 C-10.52555246 36.40003705 -4.53743494 23.45589218 -1.578125 7.1796875 C-1.13979122 4.76885172 -0.59429967 2.37719868 0 0 Z " fill="#0B9FB5" transform="translate(943,11)"/>
  <path d="M0 0 C0.88816406 0.01804688 1.77632812 0.03609375 2.69140625 0.0546875 C4.87806775 0.10171248 7.06417281 0.17345352 9.25 0.25 C9.25 5.2 9.25 10.15 9.25 15.25 C5.29 15.25 1.33 15.25 -2.75 15.25 C-2.75 16.57 -2.75 17.89 -2.75 19.25 C1.21 19.25 5.17 19.25 9.25 19.25 C9.25 23.21 9.25 27.17 9.25 31.25 C5.29 31.25 1.33 31.25 -2.75 31.25 C-2.75 32.9 -2.75 34.55 -2.75 36.25 C1.21 36.58 5.17 36.91 9.25 37.25 C9.25 42.2 9.25 47.15 9.25 52.25 C3.97 52.25 -1.31 52.25 -6.75 52.25 C-6.75 39.71 -6.75 27.17 -6.75 14.25 C-10.05 14.25 -13.35 14.25 -16.75 14.25 C-16.75 15.57 -16.75 16.89 -16.75 18.25 C-19.72 18.25 -22.69 18.25 -25.75 18.25 C-24.32334554 16.5855698 -22.89651339 14.92129155 -21.46875 13.2578125 C-20.36111749 11.96389634 -19.25669448 10.6672224 -18.15625 9.3671875 C-17.39828125 8.47386719 -17.39828125 8.47386719 -16.625 7.5625 C-16.16867187 7.02238281 -15.71234375 6.48226562 -15.2421875 5.92578125 C-14.74976563 5.37277344 -14.25734375 4.81976563 -13.75 4.25 C-13.23179687 3.52683594 -12.71359375 2.80367187 -12.1796875 2.05859375 C-8.37395303 -0.7742922 -4.60459701 -0.17683829 0 0 Z " fill="#F3FAFB" transform="translate(651.75,44.75)"/>
  <path d="M0 0 C4.29 0 8.58 0 13 0 C13 23.1 13 46.2 13 70 C8.71 70 4.42 70 0 70 C0 57.79 0 45.58 0 33 C2.97 33 5.94 33 9 33 C9 31.68 9 30.36 9 29 C6.03 29 3.06 29 0 29 C0 19.43 0 9.86 0 0 Z " fill="#F9FCFD" transform="translate(178,29)"/>
  <path d="M0 0 C1.093125 0.00257812 2.18625 0.00515625 3.3125 0.0078125 C4.405625 0.00523438 5.49875 0.00265625 6.625 0 C9.3125 0.1328125 9.3125 0.1328125 10.3125 1.1328125 C10.44205132 2.63985062 10.50362257 4.15281352 10.53710938 5.66503906 C10.55962769 6.62984192 10.582146 7.59464478 10.60534668 8.58868408 C10.67609866 13.01526423 10.73388427 17.44166921 10.77246094 21.86865234 C10.79907443 24.20447283 10.84000618 26.54017563 10.89550781 28.87548828 C10.97453117 32.23778941 11.00775252 35.59784459 11.03125 38.9609375 C11.06424194 40.0038092 11.09723389 41.04668091 11.13122559 42.12115479 C11.11191131 49.11566019 11.11191131 49.11566019 8.95141602 51.86462402 C4.918345 54.96258414 1.41729252 55.67430035 -3.6875 57.1328125 C-3.6875 50.5328125 -3.6875 43.9328125 -3.6875 37.1328125 C-0.0575 37.1328125 3.5725 37.1328125 7.3125 37.1328125 C7.3125 36.1428125 7.3125 35.1528125 7.3125 34.1328125 C3.6825 34.1328125 0.0525 34.1328125 -3.6875 34.1328125 C-3.6875 29.1828125 -3.6875 24.2328125 -3.6875 19.1328125 C-0.0575 19.1328125 3.5725 19.1328125 7.3125 19.1328125 C7.3125 17.8128125 7.3125 16.4928125 7.3125 15.1328125 C3.6825 15.1328125 0.0525 15.1328125 -3.6875 15.1328125 C-3.71435412 12.82037458 -3.73382841 10.5078498 -3.75 8.1953125 C-3.76160156 6.90753906 -3.77320312 5.61976562 -3.78515625 4.29296875 C-3.65807987 0.1807772 -3.65807987 0.1807772 0 0 Z " fill="#F0F9FA" transform="translate(71.6875,30.8671875)"/>
  <path d="M0 0 C7.92 0 15.84 0 24 0 C24 8.91 24 17.82 24 27 C16.08 27 8.16 27 0 27 C0 23.04 0 19.08 0 15 C5.94 15 11.88 15 18 15 C18 13.35 18 11.7 18 10 C12.06 10 6.12 10 0 10 C0 6.7 0 3.4 0 0 Z " fill="#FBFDFE" transform="translate(506,42)"/>
  <path d="M0 0 C3.63 0 7.26 0 11 0 C11 11.88 11 23.76 11 36 C7.37 36 3.74 36 0 36 C0 34.68 0 33.36 0 32 C-1.9490625 32.061875 -1.9490625 32.061875 -3.9375 32.125 C-8.83591302 32.14055052 -13.28176811 31.2492718 -18 30 C-17.67 29.34 -17.34 28.68 -17 28 C-14.27779617 27.68669533 -11.6677157 27.48735017 -8.9375 27.375 C-6.318125 27.25125 -3.69875 27.1275 -1 27 C-0.67 20.73 -0.34 14.46 0 8 C-7.92 8 -15.84 8 -24 8 C-24 7.01 -24 6.02 -24 5 C-16.08 4.67 -8.16 4.34 0 4 C0 2.68 0 1.36 0 0 Z " fill="#0BA1B5" transform="translate(386,31)"/>
  <path d="M0 0 C4.62 0 9.24 0 14 0 C14 12.21 14 24.42 14 37 C9.38 37 4.76 37 0 37 C0 24.79 0 12.58 0 0 Z " fill="#F7FCFC" transform="translate(1047,54)"/>
  <path d="M0 0 C4.29 0 8.58 0 13 0 C11.06405967 13.16439424 5.42848548 22.71731585 -4 32 C-4.62648438 32.62519531 -5.25296875 33.25039062 -5.8984375 33.89453125 C-11.60898599 39.23160505 -18.25616608 43.10900196 -25 47 C-25.79277344 47.46019531 -26.58554687 47.92039063 -27.40234375 48.39453125 C-31.4079974 50.57034695 -34.4424532 51.45575468 -39 51 C-36.19166995 47.94349195 -33.58340609 46.08798553 -29.875 44.25 C-20.40701143 39.21303008 -12.96237704 32.94356557 -7 24 C-6.60039063 23.41089844 -6.20078125 22.82179688 -5.7890625 22.21484375 C-1.8949648 15.55388716 -1.20210321 7.50403819 0 0 Z " fill="#10A2B6" transform="translate(963,92)"/>
  <path d="M0 0 C8.25 0 16.5 0 25 0 C25 5.94 25 11.88 25 18 C16.75 18 8.5 18 0 18 C0 12.06 0 6.12 0 0 Z " fill="#FAFDFD" transform="translate(361,40)"/>
  <path d="M0 0 C4.29 0 8.58 0 13 0 C12.78956396 14.09921461 4.94023776 23.98426914 -4.5859375 33.5625 C-5.9945865 34.99449678 -7.35898127 36.45914679 -8.71875 37.9375 C-10.00265625 39.29875 -10.00265625 39.29875 -11.3125 40.6875 C-12.07175781 41.49574219 -12.83101562 42.30398437 -13.61328125 43.13671875 C-16.43102467 45.33649552 -18.47859644 45.70019797 -22 46 C-20.29943769 42.69890845 -18.37302381 40.31978108 -15.6875 37.8125 C-5.6680652 27.98290712 -0.62871265 13.83167823 0 0 Z " fill="#0EA1B6" transform="translate(954,68)"/>
  <path d="M0 0 C1.79244141 0.01740234 1.79244141 0.01740234 3.62109375 0.03515625 C5.41740234 0.04869141 5.41740234 0.04869141 7.25 0.0625 C8.17683594 0.07410156 9.10367188 0.08570313 10.05859375 0.09765625 C5.49718586 18.1832384 -4.68294902 31.444448 -18.94140625 43.09765625 C-19.93140625 42.76765625 -20.92140625 42.43765625 -21.94140625 42.09765625 C-21.27753906 41.23785156 -20.61367188 40.37804687 -19.9296875 39.4921875 C-11.49160247 28.30737571 -7.14324807 17.65156542 -4.51953125 3.80078125 C-3.73315538 0.12394274 -3.73315538 0.12394274 0 0 Z " fill="#14A3B8" transform="translate(948.94140625,46.90234375)"/>
  <path d="M0 0 C4.62 0 9.24 0 14 0 C10.89551102 14.19194963 1.71943547 25.75528486 -7.75 36.42578125 C-10.07938847 38.97833421 -10.07938847 38.97833421 -12 42 C-13.32 42 -14.64 42 -16 42 C-14.69233568 38.47731243 -13.07069959 35.23690715 -11.28320312 31.93554688 C-5.84270777 21.74361701 -2.85312399 11.15312105 0 0 Z " fill="#13A2B8" transform="translate(472,11)"/>
  <path d="M0 0 C3.96 0 7.92 0 12 0 C12 9.24 12 18.48 12 28 C8.04 28 4.08 28 0 28 C0 18.76 0 9.52 0 0 Z " fill="#F9FCFD" transform="translate(901,94)"/>
  <path d="M0 0 C20.46 0 40.92 0 62 0 C62 1.65 62 3.3 62 5 C41.54 5 21.08 5 0 5 C0 3.35 0 1.7 0 0 Z " fill="#049DB3" transform="translate(343,15)"/>
  <path d="M0 0 C5.65253308 1.37031105 8.5113541 5.67689413 12 10 C10.7508258 13.45925163 9.32472205 16.14693203 7 19 C8.216875 18.979375 9.43375 18.95875 10.6875 18.9375 C13.91977322 18.93175884 16.84934741 19.21233685 20 20 C20 21.65 20 23.3 20 25 C9.44 25 -1.12 25 -12 25 C-12 23.35 -12 21.7 -12 20 C-6.72 20 -1.44 20 4 20 C3.34 17.999375 2.68 15.99875 2 13.9375 C0.48333161 9.04571041 -0.47325882 5.08753236 0 0 Z " fill="#21A7BB" transform="translate(38,12)"/>
  <path d="M0 0 C7.92 0 15.84 0 24 0 C24 2.64 24 5.28 24 8 C22.68 8.33 21.36 8.66 20 9 C19.67 10.98 19.34 12.96 19 15 C14.38 15 9.76 15 5 15 C5.33 12.69 5.66 10.38 6 8 C4.02 8 2.04 8 0 8 C0 5.36 0 2.72 0 0 Z " fill="#FCFDFE" transform="translate(506,74)"/>
  <path d="M0 0 C4.29 0 8.58 0 13 0 C13.02683201 3.47921735 13.0467567 6.95823039 13.0625 10.4375 C13.07087891 11.43072266 13.07925781 12.42394531 13.08789062 13.44726562 C13.09111328 14.39150391 13.09433594 15.33574219 13.09765625 16.30859375 C13.10289307 17.18314209 13.10812988 18.05769043 13.11352539 18.95874023 C13 21 13 21 12 22 C10.16884117 22.09851171 8.33380067 22.12972629 6.5 22.125 C5.4996875 22.12757813 4.499375 22.13015625 3.46875 22.1328125 C1 22 1 22 0 21 C-0.08685603 19.43827255 -0.10702219 17.87270656 -0.09765625 16.30859375 C-0.09443359 15.36435547 -0.09121094 14.42011719 -0.08789062 13.44726562 C-0.07951172 12.45404297 -0.07113281 11.46082031 -0.0625 10.4375 C-0.05798828 9.44041016 -0.05347656 8.44332031 -0.04882812 7.41601562 C-0.03700023 4.94398513 -0.01906415 2.47198528 0 0 Z " fill="#E9F6F8" transform="translate(356,108)"/>
  <path d="M0 0 C0.33 0 0.66 0 1 0 C1.17758644 6.88640765 1.30011348 13.77222462 1.38452148 20.66040039 C1.41970941 23.00307276 1.46746805 25.34559157 1.52807617 27.68774414 C1.61306375 31.05653747 1.65270585 34.42329855 1.68359375 37.79296875 C1.71972275 38.83897751 1.75585175 39.88498627 1.79307556 40.96269226 C1.79686067 47.9831244 1.79686067 47.9831244 -0.3588562 50.73403931 C-4.39054239 53.83081111 -7.89864025 54.54246864 -13 56 C-13 49.4 -13 42.8 -13 36 C-9.37 36 -5.74 36 -2 36 C-0.81998451 32.45995354 -0.77087654 29.1772744 -0.68359375 25.48828125 C-0.66281265 24.76005661 -0.64203156 24.03183197 -0.62062073 23.28153992 C-0.55531254 20.95862125 -0.49632763 18.63559094 -0.4375 16.3125 C-0.39429695 14.73631665 -0.35068208 13.16014452 -0.30664062 11.58398438 C-0.1996504 7.72277025 -0.09833039 3.86144397 0 0 Z " fill="#E1F3F6" transform="translate(81,32)"/>
  <path d="M0 0 C1.58206057 0.00667536 3.16410534 0.0186375 4.74609375 0.03515625 C5.55240234 0.03966797 6.35871094 0.04417969 7.18945312 0.04882812 C9.18753131 0.06065107 11.18557158 0.07858711 13.18359375 0.09765625 C12.87036176 7.45860807 11.2444477 13.40648714 8.18359375 20.09765625 C1.96058095 19.16762357 -1.28759677 13.15199399 -4.81640625 8.41015625 C-6.06108725 5.53183145 -5.79602473 4.0365117 -4.81640625 1.09765625 C-3.81640625 0.09765625 -3.81640625 0.09765625 0 0 Z " fill="#F5FBFC" transform="translate(511.81640625,92.90234375)"/>
  <path d="M0 0 C2.64 0 5.28 0 8 0 C8 10.23 8 20.46 8 31 C5.36 31 2.72 31 0 31 C0 20.77 0 10.54 0 0 Z " fill="#F6FBFC" transform="translate(37,92)"/>
  <path d="M0 0 C3.63 0 7.26 0 11 0 C11 7.26 11 14.52 11 22 C7.37 22 3.74 22 0 22 C0 14.74 0 7.48 0 0 Z " fill="#F8FCFD" transform="translate(379,108)"/>
  <path d="M0 0 C3.75425909 1.39693362 6.25079394 3.84316775 8.6875 7 C8.6875 7.66 8.6875 8.32 8.6875 9 C2.46833296 12.10958352 -6.09058161 11.12669152 -12.875 11.0625 C-15.989375 11.041875 -19.10375 11.02125 -22.3125 11 C-22.3125 19.58 -22.3125 28.16 -22.3125 37 C-22.6425 37 -22.9725 37 -23.3125 37 C-23.3125 25.45 -23.3125 13.9 -23.3125 2 C-26.6125 2 -29.9125 2 -33.3125 2 C-33.3125 1.67 -33.3125 1.34 -33.3125 1 C-29.6825 1 -26.0525 1 -22.3125 1 C-21.9825 3.64 -21.6525 6.28 -21.3125 9 C-18.70675662 7.87854082 -16.10290944 6.75300203 -13.5 5.625 C-12.76201172 5.30789062 -12.02402344 4.99078125 -11.26367188 4.6640625 C-10.55146484 4.3546875 -9.83925781 4.0453125 -9.10546875 3.7265625 C-8.12356567 3.30238037 -8.12356567 3.30238037 -7.12182617 2.86962891 C-1.15135458 0 -1.15135458 0 0 0 Z " fill="#10A3B7" transform="translate(1113.3125,13)"/>
  <path d="M0 0 C3.96 0 7.92 0 12 0 C12 6.27 12 12.54 12 19 C8.04 19 4.08 19 0 19 C0 12.73 0 6.46 0 0 Z " fill="#F1F9FB" transform="translate(357,84)"/>
  <path d="M0 0 C3.63 0 7.26 0 11 0 C11 5.94 11 11.88 11 18 C9 19 9 19 0 19 C0 12.73 0 6.46 0 0 Z " fill="#FAFDFD" transform="translate(379,84)"/>
  <path d="M0 0 C13.2 0 26.4 0 40 0 C40 1.65 40 3.3 40 5 C26.8 5 13.6 5 0 5 C0 3.35 0 1.7 0 0 Z " fill="#039DB3" transform="translate(888,32)"/>
  <path d="M0 0 C0.66 0 1.32 0 2 0 C3.48046875 1.50390625 3.48046875 1.50390625 5.1875 3.5625 C7.62605903 6.48877084 10.10726536 8.96795099 13 11.4375 C15.05461586 13.4461513 15.92293885 14.38878895 16.28515625 17.26171875 C15.89347285 21.41906009 14.82383344 25.23074421 13 29 C12.34 29 11.68 29 11 29 C9.15463722 24.92199812 7.32581937 20.83678488 5.5 16.75 C4.71302734 15.01169922 4.71302734 15.01169922 3.91015625 13.23828125 C3.41386719 12.12324219 2.91757812 11.00820313 2.40625 9.859375 C1.94541016 8.83295898 1.48457031 7.80654297 1.00976562 6.74902344 C0 4 0 4 0 0 Z " fill="#11A2B7" transform="translate(791,16)"/>
  <path d="M0 0 C6.09256856 3.43683354 11.03601927 8.23663925 15 14 C15.33890572 19.08358581 13.46442238 22.60689924 11 27 C10.34 27 9.68 27 9 27 C7.48889193 23.25438105 5.99306661 19.5028431 4.5 15.75 C4.07074219 14.68652344 3.64148438 13.62304688 3.19921875 12.52734375 C2.79316406 11.50253906 2.38710938 10.47773437 1.96875 9.421875 C1.59169922 8.47924805 1.21464844 7.53662109 0.82617188 6.56542969 C0 4 0 4 0 0 Z " fill="#0FA1B7" transform="translate(793,55)"/>
  <path d="M0 0 C4.00695297 1.43576377 7.31249778 3.33232778 10.8125 5.75 C12.27623047 6.73226563 12.27623047 6.73226563 13.76953125 7.734375 C16 10 16 10 16.41796875 13.0859375 C15.9475292 16.36582443 14.89758033 18.3117612 13 21 C11.19140625 20.7890625 11.19140625 20.7890625 9 20 C4.85731992 14.71276527 0 6.85543866 0 0 Z " fill="#0FA1B6" transform="translate(320,10)"/>
  <path d="M0 0 C10.89 0 21.78 0 33 0 C33 1.65 33 3.3 33 5 C22.11 5 11.22 5 0 5 C0 3.35 0 1.7 0 0 Z " fill="#059DB3" transform="translate(891,66)"/>
  <path d="M0 0 C10.89 0 21.78 0 33 0 C33 1.65 33 3.3 33 5 C22.11 5 11.22 5 0 5 C0 3.35 0 1.7 0 0 Z " fill="#059DB3" transform="translate(891,48)"/>
  <path d="M0 0 C9.24 0 18.48 0 28 0 C28 1.65 28 3.3 28 5 C18.76 5 9.52 5 0 5 C0 3.35 0 1.7 0 0 Z " fill="#1EA7BA" transform="translate(28,49)"/>
  <path d="M0 0 C3.83663072 1.34929464 6.65172569 3.07751025 9.8125 5.625 C10.99779297 6.57246094 10.99779297 6.57246094 12.20703125 7.5390625 C12.79871094 8.02117188 13.39039063 8.50328125 14 9 C12.3619751 12.51005335 10.96865509 15.45543849 8 18 C7.01 17.67 6.02 17.34 5 17 C3.61328125 14.19921875 3.61328125 14.19921875 2.3125 10.6875 C1.87550781 9.53636719 1.43851563 8.38523437 0.98828125 7.19921875 C0 4 0 4 0 0 Z " fill="#0CA0B5" transform="translate(903,11)"/>
  <path d="M0 0 C5.65253308 1.37031105 8.5113541 5.67689413 12 10 C10.512 14.712 10.512 14.712 8 16.125 C7.34 16.41375 6.68 16.7025 6 17 C5.34 17.99 4.68 18.98 4 20 C-0.59225513 6.3667426 -0.59225513 6.3667426 0 0 Z " fill="#16A4B8" transform="translate(38,12)"/>
  <path d="M0 0 C2.64 0 5.28 0 8 0 C8 4.95 8 9.9 8 15 C5.36 15 2.72 15 0 15 C0 10.05 0 5.1 0 0 Z " fill="#EDF8F9" transform="translate(671,45)"/>
  <path d="M0 0 C8.91 0 17.82 0 27 0 C27 1.32 27 2.64 27 4 C18.09 4 9.18 4 0 4 C0 2.68 0 1.36 0 0 Z " fill="#0FA1B6" transform="translate(29,66)"/>
  <path d="M0 0 C2.64 0 5.28 0 8 0 C8 4.29 8 8.58 8 13 C5.36 13 2.72 13 0 13 C0 8.71 0 4.42 0 0 Z " fill="#E1F3F6" transform="translate(671,28)"/>
  <path d="M0 0 C3.63 0 7.26 0 11 0 C11.33 2.64 11.66 5.28 12 8 C14.31 7.34 16.62 6.68 19 6 C19.33 6.66 19.66 7.32 20 8 C22.58605332 8.4683265 22.58605332 8.4683265 25.5625 8.625 C26.57441406 8.69976562 27.58632812 8.77453125 28.62890625 8.8515625 C29.80259766 8.92503906 29.80259766 8.92503906 31 9 C31 9.33 31 9.66 31 10 C24.4 10 17.8 10 11 10 C11 18.58 11 27.16 11 36 C10.67 36 10.34 36 10 36 C10 24.45 10 12.9 10 1 C6.7 1 3.4 1 0 1 C0 0.67 0 0.34 0 0 Z " fill="#52BCCB" transform="translate(1080,14)"/>
  <path d="M0 0 C0.33 0.99 0.66 1.98 1 3 C-0.80078125 5.62890625 -0.80078125 5.62890625 -3.3125 8.5625 C-4.54419922 10.01849609 -4.54419922 10.01849609 -5.80078125 11.50390625 C-7.15645275 13.04258137 -8.54993684 14.54993684 -10 16 C-11.32 16 -12.64 16 -14 16 C-12.45752012 12.58110131 -10.44854158 9.81230728 -8.125 6.875 C-7.44695313 6.00617188 -6.76890625 5.13734375 -6.0703125 4.2421875 C-4.10195535 2.11041957 -2.66436924 1.06335813 0 0 Z " fill="#16A3B7" transform="translate(64,123)"/>
  <path d="M0 0 C2.06365451 3.09548177 2.70846051 5.28892843 3.5625 8.875 C3.81128906 9.90367188 4.06007813 10.93234375 4.31640625 11.9921875 C4.92153884 14.65477088 5.48071863 17.31951904 6 20 C4.35 20 2.7 20 1 20 C-0.23839599 13.34362157 -0.09139136 6.7528064 0 0 Z " fill="#22A8BB" transform="translate(625,82)"/>
  <path d="M0 0 C0.33 0.66 0.66 1.32 1 2 C1.66 2.33 2.32 2.66 3 3 C1.27843904 4.01303762 -0.45261806 5.00994848 -2.1875 6 C-3.63189453 6.8353125 -3.63189453 6.8353125 -5.10546875 7.6875 C-8.04888743 9.02216758 -9.81880057 9.27915461 -13 9 C-10.57542028 6.31765765 -7.92489603 4.63143275 -4.8125 2.8125 C-3.91144531 2.28269531 -3.01039063 1.75289062 -2.08203125 1.20703125 C-1.39496094 0.80871094 -0.70789063 0.41039062 0 0 Z " fill="#14A2B7" transform="translate(497,133)"/>
  <path d="M0 0 C2 3 2 3 1.8125 4.875 C0.82544914 7.45651762 -0.51452332 9.67490606 -2 12 C-4.475 11.01 -4.475 11.01 -7 10 C-6.67 9.01 -6.34 8.02 -6 7 C-5.34 7 -4.68 7 -4 7 C-2.68 4.69 -1.36 2.38 0 0 Z " fill="#1EA6BA" transform="translate(627,129)"/>
  <path d="M0 0 C0.33 0.66 0.66 1.32 1 2 C0.34 2 -0.32 2 -1 2 C-1.0825 2.61875 -1.165 3.2375 -1.25 3.875 C-2 6 -2 6 -3.6875 7.25 C-6.54233119 8.1758912 -9.01774607 8.135557 -12 8 C-8.59287819 4.02502456 -4.67239145 2.13206212 0 0 Z " fill="#20A8BB" transform="translate(936,135)"/>
  <path d="M0 0 C2 3 2 3 1.75 5 C1 7 1 7 -1 10 C-2.32 10 -3.64 10 -5 10 C-3.66511872 6.40608886 -2.03977277 3.24509304 0 0 Z " fill="#1FA6BA" transform="translate(461,78)"/>
  <path d="M0 0 C0.33 0.99 0.66 1.98 1 3 C1.66 3 2.32 3 3 3 C2.25 7.75 2.25 7.75 0 10 C-0.99 10 -1.98 10 -3 10 C-2.39009109 6.44219804 -1.4216319 3.3171411 0 0 Z " fill="#22A7BA" transform="translate(488,47)"/>
  <path d="M0 0 C0 0.99 0 1.98 0 3 C-3.3 3.33 -6.6 3.66 -10 4 C-10 3.34 -10 2.68 -10 2 C-8.71211992 1.46987262 -7.41953322 0.9511671 -6.125 0.4375 C-5.40570313 0.14746094 -4.68640625 -0.14257812 -3.9453125 -0.44140625 C-2 -1 -2 -1 0 0 Z " fill="#44B5C5" transform="translate(233,138)"/>
  <path d="M0 0 C0.33 0.66 0.66 1.32 1 2 C1.66 2 2.32 2 3 2 C2.34 3.65 1.68 5.3 1 7 C-0.32 7 -1.64 7 -3 7 C-1.125 2.25 -1.125 2.25 0 0 Z " fill="#20A7BB" transform="translate(459,46)"/>
  <path d="M0 0 C0.33 0 0.66 0 1 0 C1.38873828 1.95565258 1.76060833 3.91466504 2.125 5.875 C2.33382812 6.96554688 2.54265625 8.05609375 2.7578125 9.1796875 C2.83773437 10.11039063 2.91765625 11.04109375 3 12 C2.34 12.66 1.68 13.32 1 14 C0.34 14 -0.32 14 -1 14 C-0.67 9.38 -0.34 4.76 0 0 Z " fill="#32AEC1" transform="translate(955,15)"/>
  <path d="M0 0 C0.80824219 0.19464844 1.61648437 0.38929688 2.44921875 0.58984375 C3.06410156 0.74582031 3.67898437 0.90179688 4.3125 1.0625 C4.3125 1.3925 4.3125 1.7225 4.3125 2.0625 C-0.3075 2.0625 -4.9275 2.0625 -9.6875 2.0625 C-6.42077676 -1.20422324 -4.23267899 -1.04283395 0 0 Z " fill="#39B0C2" transform="translate(99.6875,138.9375)"/>
  <path d="M0 0 C3.3 0.33 6.6 0.66 10 1 C10 1.33 10 1.66 10 2 C8.576875 2.2165625 8.576875 2.2165625 7.125 2.4375 C4.1065506 2.82935399 4.1065506 2.82935399 2 4 C2 4.66 2 5.32 2 6 C1.34 6 0.68 6 0 6 C0 4.02 0 2.04 0 0 Z " fill="#21A8BC" transform="translate(625,62)"/>
  <path d="M0 0 C0.66 1.32 1.32 2.64 2 4 C0.6875 5.5 0.6875 5.5 -1 7 C-1.99 7 -2.98 7 -4 7 C-2.79618552 4.50638429 -1.54571278 2.31856917 0 0 Z " fill="#42BBD0" transform="translate(312,81)"/>
  <path d="M0 0 C1.09658936 3.28976808 0.79953138 4.71303767 0 8 C-1.32 7.67 -2.64 7.34 -4 7 C-2.68 4.69 -1.36 2.38 0 0 Z " fill="#1FA7BB" transform="translate(927,56)"/>
  <path d="M0 0 C0.66 0.33 1.32 0.66 2 1 C1.67 1.99 1.34 2.98 1 4 C-1.31 4.33 -3.62 4.66 -6 5 C-4.06745228 2.9754262 -2.36841312 1.57894208 0 0 Z " fill="#31ADC0" transform="translate(490,137)"/>
  <path d="M0 0 C0.99 1.32 1.98 2.64 3 4 C1.625 5.5 1.625 5.5 0 7 C-0.66 7 -1.32 7 -2 7 C-1.125 2.25 -1.125 2.25 0 0 Z " fill="#1CA6B9" transform="translate(744,101)"/>
  <path d="M0 0 C0.99 0 1.98 0 3 0 C3 0.99 3 1.98 3 3 C2.01 3.66 1.02 4.32 0 5 C-0.99 4.67 -1.98 4.34 -3 4 C-1.6875 2 -1.6875 2 0 0 Z " fill="#1FA7BB" transform="translate(930,85)"/>
  <path d="M0 0 C2.4375 0.8125 2.4375 0.8125 5 2 C5.33 2.99 5.66 3.98 6 5 C5.34 5 4.68 5 4 5 C3.67 5.66 3.34 6.32 3 7 C2.01 4.69 1.02 2.38 0 0 Z " fill="#34AFC1" transform="translate(504,100)"/>
  <path d="M0 0 C0.33 1.32 0.66 2.64 1 4 C-0.65 4.66 -2.3 5.32 -4 6 C-3.6875 4.125 -3.6875 4.125 -3 2 C-2.01 1.34 -1.02 0.68 0 0 Z " fill="#29AABD" transform="translate(601,69)"/>
</svg>
