<?xml version="1.0" encoding="UTF-8"?>
<svg xmlns="http://www.w3.org/2000/svg" version="1.1" width="1331" height="781" style="background-color:transparent;">
  <path d="M0 0 C439.23 0 878.46 0 1331 0 C1331 257.73 1331 515.46 1331 781 C891.77 781 452.54 781 0 781 C0 523.27 0 265.54 0 0 Z " fill="#FDFEFE" transform="translate(0,0)"/>
  <path d="M0 0 C12.21 0 24.42 0 37 0 C37 7.65977333 36.67064103 13.33667106 35.0625 20.5625 C34.73741455 22.03493164 34.73741455 22.03493164 34.40576172 23.53710938 C30.65873728 39.57913692 24.80258898 55.19910183 17.41015625 69.9140625 C15.00940657 75.16778064 13.67325197 80.29037907 13.4375 86.0625 C13.37433594 87.04347656 13.31117187 88.02445312 13.24609375 89.03515625 C15.2458338 96.89941895 26.13324832 101.5326705 32.5 105.625 C33.50675781 106.27984375 34.51351563 106.9346875 35.55078125 107.609375 C44.89601195 113.65989134 51.56184425 117.93393122 62.828125 118.53515625 C63.57713074 118.57813339 64.32613647 118.62111053 65.09783936 118.66539001 C67.4817058 118.80134932 69.86582933 118.9319955 72.25 119.0625 C73.8698115 119.15394619 75.48960347 119.24573911 77.109375 119.33789062 C81.07268038 119.56326301 85.03628938 119.78144422 89 120 C89 125.61 89 131.22 89 137 C125.3 137 161.6 137 199 137 C199 131.39 199 125.78 199 120 C210.88 120 222.76 120 235 120 C235 192.6 235 265.2 235 340 C223.12 340 211.24 340 199 340 C199 332.08 199 324.16 199 316 C162.7 316 126.4 316 89 316 C89 323.92 89 331.84 89 340 C76.79 340 64.58 340 52 340 C51.67 272.35 51.34 204.7 51 135 C47.7 139.62 44.4 144.24 41 149 C40.67 149.33 40.34 149.66 40 150 C37.36 150 34.72 150 32 150 C25.4 137.13 18.8 124.26 12 111 C11.92652344 121.59416016 11.92652344 121.59416016 11.8515625 132.40234375 C11.77929285 142.24742196 11.70317101 152.09246696 11.625 161.9375 C11.61483479 163.21853104 11.60466957 164.49956207 11.59419632 165.81941223 C11.26030558 207.4676352 10.70474174 249.107417 9.9375 290.75 C9.91444038 292.00193523 9.89138077 293.25387047 9.86762238 294.54374313 C9.58769681 309.69601274 9.29785321 324.84807273 9 340 C-2.22 340 -13.44 340 -25 340 C-25 269.71 -25 199.42 -25 127 C-26.65 127 -28.3 127 -30 127 C-30.39251953 128.34771484 -30.39251953 128.34771484 -30.79296875 129.72265625 C-31.97527891 132.93287704 -33.14372617 134.83218497 -35.3125 137.4375 C-36.01761719 138.28957031 -36.72273437 139.14164063 -37.44921875 140.01953125 C-41.05110173 144.22816328 -44.68661455 148.40716767 -48.33203125 152.578125 C-52.10451614 156.9111442 -55.65854004 161.32195606 -59 166 C-61.97 165.34 -64.94 164.68 -68 164 C-66.45371507 159.22550618 -63.74751152 155.8784548 -60.6875 152 C-41.60653887 127.13190381 -28.05879855 98.95784267 -17.375 69.625 C-17.03911865 68.70702637 -16.7032373 67.78905273 -16.35717773 66.84326172 C-12.4956489 56.0036558 -9.36005673 45.0401864 -6 34 C-25.8 34 -45.6 34 -66 34 C-66 29.05 -66 24.1 -66 19 C-44.55 19 -23.1 19 -1 19 C-1 15.37 -1 11.74 -1 8 C-0.67 5.36 -0.34 2.72 0 0 Z " fill="#059EB4" transform="translate(1034,117)"/>
  <path d="M0 0 C11.88 0 23.76 0 36 0 C36 7.26 36 14.52 36 22 C50.19 22 64.38 22 79 22 C79 14.74 79 7.48 79 0 C90.55 0 102.1 0 114 0 C114 100.32 114 200.64 114 304 C102.45 304 90.9 304 79 304 C79 297.4 79 290.8 79 284 C64.81 284 50.62 284 36 284 C36 296.87 36 309.74 36 323 C24.12 323 12.24 323 0 323 C0 216.41 0 109.82 0 0 Z " fill="#029DB3" transform="translate(505,52)"/>
  <path d="M0 0 C12.21 0 24.42 0 37 0 C37 7.92 37 15.84 37 24 C59.11 24 81.22 24 104 24 C104 16.08 104 8.16 104 0 C115.22 0 126.44 0 138 0 C138.45459117 50.33267265 138.77441064 100.66578935 139 151 C139.00523619 152.16724735 139.01047237 153.33449471 139.01586723 154.53711319 C139.16111367 187.13697992 139.2727847 219.73679558 139.32823563 252.33694553 C139.35106643 265.5943216 139.38188427 278.85156089 139.43432617 292.1088562 C139.47942383 303.54767728 139.50681604 314.98637531 139.51191533 326.42528689 C139.51504367 332.3433895 139.52634201 338.26118764 139.55907822 344.17920685 C139.58908594 349.65615472 139.59553812 355.13262366 139.58380032 360.60963643 C139.58360106 362.59787786 139.59184731 364.58614229 139.60949421 366.57430542 C139.71295609 378.89268721 139.34109295 389.71940038 131.1875 399.75 C125.44423853 404.88147927 117.9375684 407.83509277 111 411 C110.05568115 411.43989258 110.05568115 411.43989258 109.09228516 411.88867188 C100.66209613 415.80002665 91.45966319 420 82 420 C81.34 418.35 80.68 416.7 80 415 C71.28032828 415.73131943 62.71988526 417.14085809 54.1015625 418.62695312 C48.31089925 419.5908867 42.8704709 420.22032034 37 420 C37 418.35 37 416.7 37 415 C38.06734375 414.64808594 39.1346875 414.29617188 40.234375 413.93359375 C44.27918917 412.59635116 48.31846951 411.24299141 52.35644531 409.88525391 C54.08875019 409.30515255 55.82243505 408.72915226 57.55761719 408.15771484 C66.5895386 405.18021584 75.41385808 402.0594021 83.9375 397.8125 C84.58154785 397.49168457 85.2255957 397.17086914 85.88916016 396.84033203 C93.450342 392.92323943 96.9730068 389.30415107 100.02012956 381.40611696 C101.7089691 375.53556023 101.6900181 369.83553145 101.63923645 363.76312256 C101.64556171 362.36269702 101.65407284 360.96227997 101.66455668 359.5618794 C101.68689362 355.74646357 101.67856113 351.93165846 101.6648711 348.116225 C101.65555943 343.98955596 101.67518597 339.86300833 101.69119263 335.7363739 C101.71497156 328.59760746 101.72065678 321.45901362 101.71384621 314.32021332 C101.70402593 303.99890815 101.72181421 293.67779366 101.74621352 283.35651937 C101.78506126 266.60860632 101.80176358 249.860748 101.80444336 233.11279297 C101.80709325 216.84941808 101.82023238 200.5861071 101.84741211 184.32275391 C101.84908549 183.31928908 101.85075887 182.31582425 101.85248295 181.2819514 C101.86094278 176.2475667 101.86960814 171.21318237 101.87837565 166.1787982 C101.95077745 124.45251968 101.98310165 82.72634515 102 41 C80.55 40.34 59.1 39.68 37 39 C37 68.7 37 98.4 37 129 C54.16 129 71.32 129 89 129 C89 133.95 89 138.9 89 144 C87.08115818 145.91884182 83.6098696 145.24517634 81.0625 145.31640625 C79.99310181 145.3475779 79.99310181 145.3475779 78.90209961 145.37937927 C77.3788071 145.42277506 75.85544556 145.46380008 74.33203125 145.50268555 C72.06491593 145.56083497 69.79811953 145.62637916 67.53125 145.69335938 C66.04167924 145.73482901 64.55209607 145.775856 63.0625 145.81640625 C62.08325562 145.84451134 62.08325562 145.84451134 61.08422852 145.8731842 C53.05261013 146.07264691 45.04181315 146 37 146 C37 176.03 37 206.06 37 237 C51.85 237 66.7 237 82 237 C82 241.95 82 246.9 82 252 C76.49931768 252.76067507 71.11122818 253.18837351 65.5625 253.31640625 C64.79695801 253.33718735 64.03141602 253.35796844 63.24267578 253.37937927 C60.8285302 253.44408136 58.41428819 253.50338541 56 253.5625 C54.35025097 253.60576095 52.70051122 253.64937748 51.05078125 253.69335938 C47.03394967 253.79967969 43.01702241 253.90116345 39 254 C38.97502441 255.2677124 38.95004883 256.5354248 38.92431641 257.84155273 C38.27321526 286.44757253 30.75281803 313.94683692 17 339 C16.3565966 340.21084494 15.71336646 341.42178195 15.0703125 342.6328125 C10.48663384 351.10227672 5.04327948 358.54756772 -1 366 C-2.09634766 367.36898437 -2.09634766 367.36898437 -3.21484375 368.765625 C-5.45148933 371.53210887 -7.72069656 374.26857243 -10 377 C-10.63663574 377.7741626 -10.63663574 377.7741626 -11.28613281 378.56396484 C-23.38414945 393.25441362 -36.47072974 406.92899551 -52 418 C-52.7734375 418.63808594 -53.546875 419.27617187 -54.34375 419.93359375 C-60.57548429 424.82189257 -66.28396027 424.64399713 -74 424 C-72.26463507 419.76150262 -69.2826226 416.59972106 -66.3125 413.1875 C-65.76940186 412.55803467 -65.22630371 411.92856934 -64.66674805 411.2800293 C-61.97621715 408.18465362 -59.262691 405.16527903 -56.3125 402.3125 C-34.03751214 380.68160817 -17.43680667 350.92973813 -8.125 321.5625 C-7.85067139 320.71905029 -7.57634277 319.87560059 -7.29370117 319.0065918 C-1.95248827 301.14779266 -1.50467052 282.51030808 -1.34765625 264.0234375 C-1.32397366 262.08434549 -1.30026317 260.14525363 -1.27553064 258.20617473 C-1.14445638 247.80441357 -1.06917356 237.40232906 -1 227 C-0.99337184 226.00871157 -0.98674368 225.01742313 -0.97991467 223.99609566 C-0.75372978 189.80853735 -0.61150408 155.62063016 -0.48258841 121.43258929 C-0.4474846 112.14808635 -0.41054366 102.86359204 -0.37231445 93.57910156 C-0.36959018 92.91734242 -0.36686591 92.25558328 -0.36405908 91.57377084 C-0.35037122 88.25116589 -0.33665094 84.92856108 -0.32291877 81.60595632 C-0.21058758 54.40398858 -0.10360807 27.20200224 0 0 Z " fill="#089FB4" transform="translate(653,37)"/>
  <path d="M0 0 C12.21 0 24.42 0 37 0 C35.86812342 11.31876582 33.19911581 20.60823543 24.6875 28.5 C17.70562193 34.02683121 10.07321668 38.06947724 2.0625 41.875 C1.08579346 42.34111694 1.08579346 42.34111694 0.08935547 42.81665039 C-2.7924447 44.14900242 -4.78614269 45 -8 45 C-8 47.31 -8 49.62 -8 52 C5.66355777 52.74155568 19.32976093 53.39443804 33 54 C33 50.04 33 46.08 33 42 C42.9 42 52.8 42 63 42 C63.09049803 85.05864618 63.1620776 128.11726946 63.20426132 171.17599196 C63.20926391 176.26389389 63.21444123 181.35179562 63.21972656 186.43969727 C63.2207758 187.45257163 63.22182505 188.465446 63.22290608 189.50901353 C63.24029312 205.89155453 63.27182141 222.27403917 63.30861118 238.65654678 C63.346068 255.47685028 63.36824587 272.29712433 63.37635398 289.11746782 C63.38183192 299.48961565 63.39910954 309.86160413 63.43166587 320.23370289 C63.45287231 327.35422227 63.45918621 334.47465972 63.45400551 341.59520835 C63.45145324 345.69834069 63.45525917 349.80119533 63.4768219 353.9042778 C63.49647006 357.67081959 63.49715361 361.43690031 63.48359558 365.20346456 C63.481139 367.19064525 63.49822651 369.17782155 63.51632524 371.16492134 C63.45063155 381.18057493 62.45341301 393.09713599 56.125 401.3125 C45.20050645 412.02780112 28.09532163 424.21169644 12.48828125 424.09765625 C11.76005661 424.0962413 11.03183197 424.09482635 10.28153992 424.09336853 C7.95848461 424.08777659 5.63552612 424.07522562 3.3125 424.0625 C1.73632952 424.05748396 0.16015752 424.05292123 -1.41601562 424.04882812 C-5.27738098 424.0378098 -9.13867408 424.02055074 -13 424 C-10.08927411 420.804347 -7.33231006 418.93731777 -3.45703125 417.046875 C-2.38259766 416.50933594 -1.30816406 415.97179687 -0.20117188 415.41796875 C2.03603486 414.31677304 4.27558199 413.22031786 6.51757812 412.12890625 C16.41709447 407.15848719 25.00345457 401.71049114 29.15014648 391.04052734 C30.64467126 385.28982861 30.45653273 379.25369288 30.59765625 373.3515625 C30.63639085 372.01221264 30.67599404 370.67288766 30.71641541 369.33358765 C30.8207057 365.81237821 30.91476684 362.29097405 31.00616455 358.76940918 C31.15298298 353.18076507 31.31510942 347.59252895 31.47669601 342.00429535 C31.51555715 340.65637043 31.55403443 339.30843439 31.59212112 337.96048737 C31.87587809 327.95843304 32.28865894 317.98120868 33 308 C31.35 308 29.7 308 28 308 C27.89171875 308.87914062 27.7834375 309.75828125 27.671875 310.6640625 C25.39109706 321.98839016 15.76008087 331.56162079 8.54101562 340.15917969 C6.4585854 342.64674684 4.41766265 345.16723638 2.375 347.6875 C-1.34028457 352.22613518 -5.12479937 356.70288605 -8.92114258 361.17358398 C-12.49423551 365.38706072 -16.0062115 369.64693397 -19.49609375 373.9296875 C-24.97025239 380.64215036 -30.47712828 387.32757838 -36 394 C-36.51949219 394.62825684 -37.03898437 395.25651367 -37.57421875 395.90380859 C-48.62645947 409.23684308 -48.62645947 409.23684308 -55 415 C-55.61488281 415.56074219 -56.22976562 416.12148438 -56.86328125 416.69921875 C-59.64282973 418.39133876 -61.5235829 418.30272918 -64.75 418.1875 C-65.73484375 418.16042969 -66.7196875 418.13335937 -67.734375 418.10546875 C-68.85585937 418.05326172 -68.85585937 418.05326172 -70 418 C-67.71765514 410.01758573 -62.43591654 404.27124131 -56.5625 398.5625 C-17.55333372 360.61001543 2.47541899 304.54915232 19 254 C5.1579086 261.76792471 -8.24639569 270.38631424 -21.37915039 279.29394531 C-30.52515624 285.49551733 -37.87540474 290.07219853 -49 291 C-49.02505615 290.12263184 -49.0501123 289.24526367 -49.07592773 288.34130859 C-49.17145384 285.06482809 -49.27066243 281.78850102 -49.37231445 278.51220703 C-49.41544251 277.09818835 -49.45713168 275.68412498 -49.49731445 274.27001953 C-49.5555575 272.2293556 -49.61909141 270.18891205 -49.68359375 268.1484375 C-49.72025146 266.92302246 -49.75690918 265.69760742 -49.79467773 264.43505859 C-49.96620108 260.55374049 -49.96620108 260.55374049 -51 255 C-46.05 255 -41.1 255 -36 255 C-36 184.38 -36 113.76 -36 41 C-26.76 40.34 -17.52 39.68 -8 39 C-6.515 33.06 -6.515 33.06 -5 27 C-4.649375 25.96875 -4.29875 24.9375 -3.9375 23.875 C-1.38883901 16.0591063 -0.74561191 8.20173099 0 0 Z " fill="#059DB3" transform="translate(196,30)"/>
  <path d="M0 0 C6.27 0 12.54 0 19 0 C19 8.58 19 17.16 19 26 C23.29 26 27.58 26 32 26 C32 23.69 32 21.38 32 19 C38.27 19 44.54 19 51 19 C51 32.2 51 45.4 51 59 C54.63 59 58.26 59 62 59 C62 61.64 62 64.28 62 67 C58.37 67 54.74 67 51 67 C51 80.86 51 94.72 51 109 C44.73 108.67 38.46 108.34 32 108 C32 107.01 32 106.02 32 105 C25.565 104.505 25.565 104.505 19 104 C19 111.26 19 118.52 19 126 C29.56 126 40.12 126 51 126 C51 128.97 51 131.94 51 135 C40.44 135 29.88 135 19 135 C19 144.57 19 154.14 19 164 C30.22 164 41.44 164 53 164 C53 166.64 53 169.28 53 172 C41.78 172 30.56 172 19 172 C19 186.19 19 200.38 19 215 C12.73 215 6.46 215 0 215 C0 201.14 0 187.28 0 173 C-10.23 173 -20.46 173 -31 173 C-31.33 175.97 -31.66 178.94 -32 182 C-32.94774282 184.65420496 -33.90616845 187.13605845 -35.0625 189.6875 C-37.09689348 194.19854642 -38.56464998 197.96103501 -38 203 C-33.34125002 210.86164059 -24.46321382 215.13277307 -16 218 C-9.93415016 219.26747599 -3.75953576 219.07796495 2.40625 219 C4.10975994 219.00754179 5.81325754 219.01859615 7.51672363 219.03295898 C11.94262793 219.06106439 16.3670623 219.04232443 20.79290771 219.01287842 C25.33208161 218.99128426 29.87100794 219.01529986 34.41015625 219.03515625 C43.27380761 219.06736958 52.13643207 219.04995724 61 219 C60.97679687 219.90621094 60.95359375 220.81242188 60.9296875 221.74609375 C60.82426709 228.86197138 61.10597738 235.13416799 63 242 C53.31541498 242.0931723 43.63098709 242.16400241 33.94604969 242.20724869 C29.44767603 242.22801731 24.94961171 242.25613571 20.45141602 242.30175781 C16.10065917 242.34560237 11.75019761 242.36921748 7.39923668 242.37950897 C5.74923754 242.38683176 4.09925236 242.40112894 2.44938087 242.42292023 C-17.31037973 242.67324007 -32.3614634 237.04393444 -46.76171875 223.390625 C-49 221 -49 221 -49 219 C-53.76217391 223.34145554 -57.17215121 228.35288726 -60.75 233.6875 C-61.33910156 234.55439453 -61.92820312 235.42128906 -62.53515625 236.31445312 C-65.46179457 240.54168141 -65.46179457 240.54168141 -68 245 C-76.91 245 -85.82 245 -95 245 C-95.85283053 213.15018069 -96.27038931 181.30604046 -96.53222656 149.44628906 C-96.58363164 143.27602143 -96.63867834 137.10578619 -96.69335938 130.93554688 C-96.79900639 118.95705928 -96.90083001 106.97854285 -97 95 C-97.30180176 95.53890869 -97.60360352 96.07781738 -97.91455078 96.63305664 C-99.31003891 99.11413131 -100.71740779 101.58827379 -102.125 104.0625 C-102.599375 104.91005859 -103.07375 105.75761719 -103.5625 106.63085938 C-111.35333137 120.26481427 -111.35333137 120.26481427 -117.375 121.9375 C-118.24125 121.958125 -119.1075 121.97875 -120 122 C-118.72383237 118.06678036 -117.3277089 114.22735636 -115.7578125 110.40234375 C-109.21530936 94.43215834 -109.21530936 94.43215834 -104 78 C-103.51660156 76.43765625 -103.51660156 76.43765625 -103.0234375 74.84375 C-99.28116637 62.1600219 -97.76973836 49.07376141 -96 36 C-95.7802282 34.4335544 -95.56021696 32.86714235 -95.33984375 31.30078125 C-94.07310029 21.8705799 -93.47491287 12.49825744 -93 3 C-85.08 3 -77.16 3 -69 3 C-69 9.83068042 -69.05415737 16.02792132 -70 22.6875 C-70.33 25.100625 -70.66 27.51375 -71 30 C-65.06 30 -59.12 30 -53 30 C-53 24.39 -53 18.78 -53 13 C-46.07 13 -39.14 13 -32 13 C-31.95344829 17.14051624 -31.91382691 21.28008225 -31.89013672 25.4206543 C-31.88023514 26.82172768 -31.86671031 28.22278133 -31.84912109 29.6237793 C-31.82415649 31.66720525 -31.81335964 33.7103528 -31.8046875 35.75390625 C-31.79421387 36.97408447 -31.78374023 38.1942627 -31.77294922 39.45141602 C-32.09991371 46.00160464 -33.13322485 52.49918639 -34 59 C-22.78 59 -11.56 59 0 59 C0 51.41 0 43.82 0 36 C-8.58 36 -17.16 36 -26 36 C-26 32.7 -26 29.4 -26 26 C-17.42 26 -8.84 26 0 26 C0 17.42 0 8.84 0 0 Z " fill="#069EB4" transform="translate(421,509)"/>
  <path d="M0 0 C7.40002906 3.8406995 14.2757627 8.06986506 21 13 C21 11.02 21 9.04 21 7 C27.6 7 34.2 7 41 7 C41 12.28 41 17.56 41 23 C52.88953487 18.39975006 64.39245136 13.71556627 75.27490234 7.01220703 C80.22402761 4.05439059 80.22402761 4.05439059 83.5078125 3.82421875 C87.48901093 5.70249575 90.54957722 8.51804278 93.8125 11.4375 C94.50537109 12.03626953 95.19824219 12.63503906 95.91210938 13.25195312 C99.65894113 16.54842678 99.65894113 16.54842678 101 18 C101 18.66 101 19.32 101 20 C95.42602623 22.16922837 89.83558646 22.90154947 83.9375 23.625 C82.86508057 23.75688721 81.79266113 23.88877441 80.68774414 24.0246582 C67.43282199 25.49426077 54.33453949 25.1932542 41 25 C41 40.84 41 56.68 41 73 C61.46 73 81.92 73 103 73 C103 76.3 103 79.6 103 83 C96.07 83 89.14 83 82 83 C82 136.13 82 189.26 82 244 C75.4 244 68.8 244 62 244 C62 190.87 62 137.74 62 83 C55.07 83 48.14 83 41 83 C41.01571045 85.46082031 41.0314209 87.92164063 41.04760742 90.45703125 C41.09763086 98.64722247 41.13057865 106.83742097 41.15543652 115.02772522 C41.17099894 119.9866656 41.19206193 124.9454476 41.22631836 129.90429688 C41.25925184 134.70243861 41.27692358 139.50042937 41.28463173 144.29867554 C41.29011494 146.11642834 41.30081938 147.93417421 41.31719017 149.75186157 C41.61322255 184.02823671 29.51685526 209.59145524 5.83203125 234.2578125 C3.91723533 236.20494081 1.96972422 238.10871612 0 240 C-0.825 240.825 -1.65 241.65 -2.5 242.5 C-6.13084648 244.67850789 -8.81292941 244.28386919 -13 244 C-11.36926388 238.78783707 -8.10692161 234.87021063 -4.875 230.5625 C18.58389266 198.63952506 20.26990179 167.14327452 20.40471697 128.79207921 C20.42061801 124.84567426 20.44731804 120.89934065 20.4727478 116.95298767 C20.51906801 109.51996953 20.5560343 102.08693724 20.58942068 94.65385097 C20.62797792 86.174595 20.67729688 77.69541151 20.72740483 69.21621716 C20.83002695 51.81086428 20.91950816 34.40546903 21 17 C19.93378418 17.11593506 18.86756836 17.23187012 17.76904297 17.35131836 C13.69537723 17.79240433 9.62078351 18.22439052 5.54589844 18.65405273 C3.80443512 18.83886434 2.06320915 19.02593055 0.32226562 19.21557617 C-13.14340204 20.68008469 -26.43121454 21.38323702 -40 22 C-40 38.17 -40 54.34 -40 71 C-32.08 70.67 -24.16 70.34 -16 70 C-15.67 65.71 -15.34 61.42 -15 57 C-8.73 57 -2.46 57 4 57 C4 95.61 4 134.22 4 174 C-1.94 174 -7.88 174 -14 174 C-14 168.72 -14 163.44 -14 158 C-22.58 158 -31.16 158 -40 158 C-40 162.29 -40 166.58 -40 171 C-40.43657586 174.03035011 -40.90191536 176.80564095 -41.625 179.75 C-41.80393799 180.50748535 -41.98287598 181.2649707 -42.16723633 182.04541016 C-47.107266 202.12639118 -55.49771176 221.8155262 -67 239 C-67.66 239.99 -68.32 240.98 -69 242 C-72.125 242.1875 -72.125 242.1875 -75 242 C-73.79302806 235.01873284 -71.93957416 228.53909538 -69.5625 221.875 C-63.84048591 205.2631765 -61.875934 188.9042857 -61.81054688 171.36401367 C-61.80225357 170.14882553 -61.79396027 168.93363739 -61.78541565 167.68162537 C-61.76809473 165.05344197 -61.75242509 162.4253127 -61.73963928 159.7971096 C-61.7190621 155.58714078 -61.69144073 151.37723437 -61.66296387 147.16731262 C-61.60816967 138.93034719 -61.56013991 130.69334935 -61.51302338 122.45633698 C-61.44131795 109.96434424 -61.36480155 97.47238797 -61.28125 84.98046875 C-61.27421806 83.91237417 -61.27421806 83.91237417 -61.26704407 82.82270193 C-61.09754879 57.20859723 -60.67202076 31.60611127 -60 6 C-53.73 6 -47.46 6 -41 6 C-39.64908472 8.70183055 -39.66141942 11.11808206 -39.4375 14.125 C-39.35371094 15.22070312 -39.26992187 16.31640625 -39.18359375 17.4453125 C-39.12300781 18.28835938 -39.06242187 19.13140625 -39 20 C-18.61430013 11.6410219 -18.61430013 11.6410219 0 0 Z " fill="#069EB4" transform="translate(1182,512)"/>
  <path d="M0 0 C10.56 0 21.12 0 32 0 C32 32.34 32 64.68 32 98 C36.95 98 41.9 98 47 98 C47 102.95 47 107.9 47 113 C42.38 113 37.76 113 33 113 C33.00368717 114.43051697 33.00737434 115.86103394 33.01117325 117.3348999 C33.09781494 151.29668709 33.16376721 185.25845642 33.20426132 219.22033077 C33.20926411 223.40095639 33.2144414 227.58158177 33.21972656 231.76220703 C33.2207758 232.59449007 33.22182505 233.42677311 33.22290608 234.28427684 C33.24030869 247.75838299 33.27184558 261.23242083 33.30861118 274.70648646 C33.34602463 288.53335256 33.36823671 302.36018291 33.37635398 316.18709755 C33.38184092 324.71824795 33.39916744 333.24920529 33.43166587 341.78029627 C33.45281875 347.63133918 33.4591983 353.48228236 33.45400551 359.33336073 C33.45144485 362.70865341 33.45754472 366.08333715 33.4768219 369.45861626 C33.49671617 373.12136172 33.49194008 376.78328042 33.48101807 380.44604492 C33.49266943 381.50831676 33.5043208 382.57058861 33.51632524 383.66505051 C33.43381042 393.89933006 29.9387031 399.70618952 22.71240234 406.83007812 C17.10253272 412.14835923 10.62176004 416.07599405 4 420 C2.68128906 420.8353125 2.68128906 420.8353125 1.3359375 421.6875 C-2.88743001 424.06049579 -6.47229633 424.0973948 -11.27734375 423.9921875 C-12.51419922 423.97542969 -13.75105469 423.95867187 -15.02539062 423.94140625 C-17.59846373 423.89772952 -20.17141332 423.84587737 -22.74414062 423.78515625 C-31.25242393 423.68852113 -38.80804315 424.69252824 -47 427 C-47 425.35 -47 423.7 -47 422 C-46.1793103 421.74476563 -46.1793103 421.74476563 -45.34204102 421.484375 C-33.92037439 417.89699135 -23.0065449 413.9195892 -12.2734375 408.6015625 C-9 407 -9 407 -6 406 C-4.84478498 403.52869082 -4.84478498 403.52869082 -4 401 C-3.67 400.67 -3.34 400.34 -3 400 C-2.90360816 398.20305962 -2.87812575 396.40229107 -2.87974548 394.60276794 C-2.87837082 393.43182587 -2.87699615 392.26088379 -2.87557983 391.05445862 C-2.87917511 389.75830124 -2.88277039 388.46214386 -2.88647461 387.12670898 C-2.88675648 385.75712079 -2.88659875 384.38753244 -2.8860321 383.01794434 C-2.88574412 379.28877052 -2.89164091 375.55962859 -2.89860606 371.83046222 C-2.90483953 367.93735587 -2.90544339 364.04424887 -2.90663147 360.15113831 C-2.90974481 352.77401854 -2.91795822 345.39691351 -2.92798096 338.01980025 C-2.93914203 329.62332457 -2.94465253 321.22684821 -2.94967639 312.83036697 C-2.96014084 295.55356944 -2.97774032 278.27678628 -3 261 C-3.54269531 261.81984375 -4.08539063 262.6396875 -4.64453125 263.484375 C-5.35996094 264.56203125 -6.07539063 265.6396875 -6.8125 266.75 C-7.52019531 267.81734375 -8.22789062 268.8846875 -8.95703125 269.984375 C-10.57949926 272.3792991 -12.23675289 274.70833498 -14 277 C-17 276 -17 276 -18.08227539 274.04003906 C-20.23460888 268.33798212 -22.0641503 262.68845478 -23.4375 256.75 C-23.7466333 255.42911377 -23.7466333 255.42911377 -24.06201172 254.08154297 C-26.97990574 241.16638297 -28.98533022 228.08021237 -31 215 C-31.16806152 213.9495752 -31.33612305 212.89915039 -31.50927734 211.81689453 C-33.88944558 196.81813491 -34.37433848 182.17510623 -34 167 C-31.0626819 167.30348674 -29.49781908 167.53412851 -27 169 C-24.67792747 172.32251013 -23.29934073 175.99428266 -21.8125 179.75 C-21.35762207 180.84006348 -20.90274414 181.93012695 -20.43408203 183.05322266 C-19.19354619 186.04693683 -17.97847634 189.0493822 -16.77703857 192.05895996 C-15.97370931 194.06567408 -15.16210807 196.06886623 -14.34814453 198.07128906 C-4.86555496 221.40333512 -4.86555496 221.40333512 -3 227 C-2.29600471 215.21779942 -1.83938322 203.46723409 -1.73963928 191.66449928 C-1.71798603 189.11715548 -1.69104285 186.56990947 -1.66296387 184.02262878 C-1.59434119 177.70717581 -1.53408866 171.39164923 -1.47393799 165.07611084 C-1.42244827 159.70161632 -1.36749227 154.32717792 -1.30812073 148.95276451 C-1.28210657 146.47608131 -1.2609737 143.99939038 -1.2401123 141.5226593 C-1.2234712 139.96798442 -1.2065962 138.41331201 -1.18945312 136.85864258 C-1.18526871 136.19795776 -1.18108429 135.53727295 -1.17677307 134.85656738 C-1.08112617 127.20279519 -0.47952601 119.67241623 0 112 C-11.22 112 -22.44 112 -34 112 C-34 107.38 -34 102.76 -34 98 C-22.78 98 -11.56 98 0 98 C0 65.66 0 33.32 0 0 Z " fill="#059DB3" transform="translate(302,30)"/>
  <path d="M0 0 C8.25 0 16.5 0 25 0 C24 10 24 10 21 19 C44.76 19 68.52 19 93 19 C93 22.63 93 26.26 93 30 C53.895 30.495 53.895 30.495 14 31 C12.68 33.97 11.36 36.94 10 40 C11.65 40 13.3 40 15 40 C15 43.63 15 47.26 15 51 C30.18 51 45.36 51 61 51 C61 47.37 61 43.74 61 40 C67.6 40 74.2 40 81 40 C81 71.35 81 102.7 81 135 C79.68 135 78.36 135 77 135 C76.87044922 136.4540625 76.87044922 136.4540625 76.73828125 137.9375 C75.71417078 148.13877102 73.41343102 157.35191053 70 167 C69.63003906 168.08796875 69.26007813 169.1759375 68.87890625 170.296875 C66.24319026 177.62945513 62.82509646 184.38809532 59.03417969 191.17749023 C57.04728764 194.77841393 55.48702179 197.84408076 55 202 C56.24910156 202.40412109 56.24910156 202.40412109 57.5234375 202.81640625 C60.58404562 203.85838856 63.59539545 204.98772723 66.60913086 206.15698242 C73.28755155 208.74277762 79.78907207 210.86674777 86.83984375 212.26171875 C87.55269531 212.50535156 88.26554687 212.74898437 89 213 C90 216 90 216 88.57421875 218.94140625 C86.19542101 224.08757028 86.67792466 229.37850335 86.8125 234.9375 C86.82603516 236.00291016 86.83957031 237.06832031 86.85351562 238.16601562 C86.88865276 240.77787588 86.93784816 243.38866634 87 246 C71.24842162 240.5064097 57.95176243 230.0194615 46.27734375 218.265625 C44.64567708 216.62748942 44.64567708 216.62748942 42 215 C36.11338401 216.28883984 30.7870104 219.57560317 25.5 222.375 C24.49767334 222.90158203 23.49534668 223.42816406 22.46264648 223.97070312 C14.38442601 228.22991029 6.35737583 232.58188834 -1.640625 236.98974609 C-4.08839926 238.33667195 -6.54170443 239.6723867 -9 241 C-9.74072754 241.4031543 -10.48145508 241.80630859 -11.24462891 242.22167969 C-17.53841874 245.53297009 -17.53841874 245.53297009 -21.5 245.25 C-22.655 245.1675 -23.81 245.085 -25 245 C-22.26221298 242.08134882 -19.58378693 239.96300052 -16.140625 237.93359375 C-14.72571777 237.08994263 -14.72571777 237.08994263 -13.28222656 236.22924805 C-12.2815918 235.63797119 -11.28095703 235.04669434 -10.25 234.4375 C-0.57594786 228.63019044 8.88752089 222.65742428 18 216 C18.5676709 215.58878906 19.1353418 215.17757812 19.72021484 214.75390625 C26.06253028 210.44006282 26.06253028 210.44006282 30.0390625 204.1796875 C29.98694132 199.9370233 28.23215081 197.3435036 25.9375 193.9375 C25.09916068 192.61905518 24.26589239 191.29737343 23.4375 189.97265625 C23.02371094 189.31152832 22.60992187 188.65040039 22.18359375 187.96923828 C14.48816139 175.16574047 14.48816139 175.16574047 15 168 C12.06655315 170.74378434 10.01987381 173.41386207 8 176.875 C-0.84180122 190.97711333 -13.16657932 202.44069633 -25 214 C-26.32 213.34 -27.64 212.68 -29 212 C-27.59583214 208.83676471 -25.72758447 206.16075225 -23.67504883 203.3840332 C-9.40076607 184.07019147 1.85228916 160.38885525 3 136 C1.2984375 135.7834375 1.2984375 135.7834375 -0.4375 135.5625 C-4 135 -4 135 -5 134 C-5.09417773 131.91380978 -5.11742878 129.82439523 -5.11352539 127.73608398 C-5.11367142 127.08244873 -5.11381744 126.42881348 -5.1139679 125.75537109 C-5.11326883 123.58557872 -5.10547678 121.41587121 -5.09765625 119.24609375 C-5.09579205 117.74536689 -5.09436816 116.24463943 -5.09336853 114.74391174 C-5.08954352 110.78681774 -5.0797134 106.82976022 -5.06866455 102.87268066 C-5.05845006 98.83765151 -5.05387083 94.80261647 -5.04882812 90.76757812 C-5.03809111 82.84503531 -5.0210149 74.92252219 -5 67 C-5.66 67 -6.32 67 -7 67 C-7.12689209 67.58426758 -7.25378418 68.16853516 -7.38452148 68.77050781 C-7.98829526 70.95760107 -8.7677613 72.683497 -9.84765625 74.671875 C-10.20537109 75.33574219 -10.56308594 75.99960937 -10.93164062 76.68359375 C-11.49141602 77.70646484 -11.49141602 77.70646484 -12.0625 78.75 C-12.43955078 79.44738281 -12.81660156 80.14476562 -13.20507812 80.86328125 C-14.13273388 82.57768302 -15.06583454 84.28913661 -16 86 C-18.64 86 -21.28 86 -24 86 C-23.63430908 85.087948 -23.63430908 85.087948 -23.26123047 84.1574707 C-22.17238807 81.43901679 -21.08596747 78.7196036 -20 76 C-19.67547852 75.18966309 -19.35095703 74.37932617 -19.01660156 73.54443359 C-9.497671 49.63904915 -3.32689018 25.50615804 0 0 Z " fill="#089FB4" transform="translate(115,511)"/>
  <path d="M0 0 C12.21 0 24.42 0 37 0 C37 4.29 37 8.58 37 13 C39.78244141 12.90912109 39.78244141 12.90912109 42.62109375 12.81640625 C48.8155604 12.61469951 55.01010136 12.41541183 61.20469666 12.21769714 C64.95291595 12.09797863 68.70110096 11.97735083 72.44921875 11.85449219 C76.0801806 11.73550981 79.71121774 11.61911526 83.34231567 11.50436401 C85.37141394 11.43960902 87.40043062 11.37231308 89.42944336 11.30493164 C98.62356486 11.0173441 107.80278567 10.95209388 117 11 C117.66 7.7 118.32 4.4 119 1 C130.22 1 141.44 1 153 1 C153 39.28 153 77.56 153 117 C141.78 117 130.56 117 119 117 C117 108 117 108 117 104 C115.99606201 104.01160156 114.99212402 104.02320313 113.95776367 104.03515625 C98.76660754 104.1499506 83.59717392 103.60125335 68.41809082 103.07287598 C64.86409346 102.94986963 61.30997121 102.83058225 57.75585938 102.7109375 C50.83711575 102.47750019 43.91852786 102.23974623 37 102 C37 106.95 37 111.9 37 117 C24.79 117 12.58 117 0 117 C0 78.39 0 39.78 0 0 Z " fill="#09A0B4" transform="translate(1101,99)"/>
  <path d="M0 0 C9.24 0 18.48 0 28 0 C28 7.26 28 14.52 28 22 C36.58 22 45.16 22 54 22 C54 14.74 54 7.48 54 0 C62.58 0 71.16 0 80 0 C80 56.1 80 112.2 80 170 C71.42 170 62.84 170 54 170 C54 162.08 54 154.16 54 146 C45.42 146 36.84 146 28 146 C28 160.52 28 175.04 28 190 C18.76 190 9.52 190 0 190 C0 127.3 0 64.6 0 0 Z " fill="#049EB4" transform="translate(56,261)"/>
  <path d="M0 0 C14.19 0 28.38 0 43 0 C43 75.24 43 150.48 43 228 C28.81 228 14.62 228 0 228 C0 189.06 0 150.12 0 110 C10.56 110 21.12 110 32 110 C31.67 108.02 31.34 106.04 31 104 C30.9379225 102.37605252 30.91287959 100.74994703 30.9375 99.125 C30.94652344 98.34382813 30.95554687 97.56265625 30.96484375 96.7578125 C30.97644531 96.17773438 30.98804688 95.59765625 31 95 C30.13197754 95.01047363 29.26395508 95.02094727 28.36962891 95.03173828 C25.15300472 95.06579716 21.93647233 95.09088767 18.71972656 95.10986328 C17.32679219 95.11992877 15.93387898 95.13358234 14.54101562 95.15087891 C12.5404564 95.1751022 10.53974385 95.18540814 8.5390625 95.1953125 C7.33459473 95.20578613 6.13012695 95.21625977 4.88916016 95.22705078 C2 95 2 95 0 93 C-0.18831473 90.04725086 -0.25167271 87.18897147 -0.22705078 84.23583984 C-0.22734283 83.32846573 -0.22763489 82.42109161 -0.22793579 81.48622131 C-0.22653898 78.47769714 -0.21096128 75.46941858 -0.1953125 72.4609375 C-0.19158362 70.37871435 -0.18873606 68.29648945 -0.18673706 66.21426392 C-0.17909077 60.72659483 -0.15943375 55.23903116 -0.1373291 49.75140381 C-0.1133006 43.17104267 -0.10409443 36.59064634 -0.09242249 30.01025391 C-0.07300993 20.00676256 -0.03469423 10.00350263 0 0 Z " fill="#FDFEFE" transform="translate(541,91)"/>
  <path d="M0 0 C6.27 0 12.54 0 19 0 C20.35091528 2.70183055 20.33858058 5.11808206 20.5625 8.125 C20.64628906 9.22070312 20.73007813 10.31640625 20.81640625 11.4453125 C20.87699219 12.28835938 20.93757813 13.13140625 21 14 C21.99 14 22.98 14 24 14 C24 14.66 24 15.32 24 16 C22.68 16 21.36 16 20 16 C20 32.17 20 48.34 20 65 C27.92 64.67 35.84 64.34 44 64 C44.33 59.71 44.66 55.42 45 51 C51.27 51 57.54 51 64 51 C64 89.61 64 128.22 64 168 C58.06 168 52.12 168 46 168 C46 162.72 46 157.44 46 152 C37.42 152 28.84 152 20 152 C20 156.29 20 160.58 20 165 C19.56342414 168.03035011 19.09808464 170.80564095 18.375 173.75 C18.19606201 174.50748535 18.01712402 175.2649707 17.83276367 176.04541016 C12.892734 196.12639118 4.50228824 215.8155262 -7 233 C-7.66 233.99 -8.32 234.98 -9 236 C-12.125 236.1875 -12.125 236.1875 -15 236 C-13.79302806 229.01873284 -11.93957416 222.53909538 -9.5625 215.875 C-3.84048591 199.2631765 -1.875934 182.9042857 -1.81054688 165.36401367 C-1.80225357 164.14882553 -1.79396027 162.93363739 -1.78541565 161.68162537 C-1.76809473 159.05344197 -1.75242509 156.4253127 -1.73963928 153.7971096 C-1.7190621 149.58714078 -1.69144073 145.37723437 -1.66296387 141.16731262 C-1.60816967 132.93034719 -1.56013991 124.69334935 -1.51302338 116.45633698 C-1.44131795 103.96434424 -1.36480155 91.47238797 -1.28125 78.98046875 C-1.27421806 77.91237417 -1.27421806 77.91237417 -1.26704407 76.82270193 C-1.09754879 51.20859723 -0.67202076 25.60611127 0 0 Z " fill="#059EB4" transform="translate(1122,518)"/>
  <path d="M0 0 C3.44892608 0.35043411 6.04461701 1.19172351 9.24560547 2.51171875 C10.90849609 3.18847656 10.90849609 3.18847656 12.60498047 3.87890625 C13.74708984 4.35585938 14.88919922 4.8328125 16.06591797 5.32421875 C17.81388672 6.03964844 17.81388672 6.03964844 19.59716797 6.76953125 C22.46571628 7.9451658 25.32994501 9.13029441 28.19091797 10.32421875 C26.46777344 14.17919922 26.46777344 14.17919922 23.97607422 15.484375 C23.07759766 15.78214844 22.17912109 16.07992187 21.25341797 16.38671875 C20.27115234 16.71285156 19.28888672 17.03898438 18.27685547 17.375 C17.25849609 17.68824219 16.24013672 18.00148438 15.19091797 18.32421875 C14.21380859 18.62714844 13.23669922 18.93007813 12.22998047 19.2421875 C7.17191836 20.71803302 3.60134353 21.32421875 -1.80908203 21.32421875 C-1.80908203 37.16421875 -1.80908203 53.00421875 -1.80908203 69.32421875 C8.42091797 69.32421875 18.65091797 69.32421875 29.19091797 69.32421875 C29.19091797 72.62421875 29.19091797 75.92421875 29.19091797 79.32421875 C18.96091797 79.32421875 8.73091797 79.32421875 -1.80908203 79.32421875 C-0.74568687 93.14835582 -0.34301325 96.4296298 9.10498047 104.76171875 C11.97632966 107.18810871 14.95686461 109.43318427 18.00341797 111.63671875 C18.90060547 112.28769531 19.79779297 112.93867187 20.72216797 113.609375 C23.08402019 115.30636543 23.08402019 115.30636543 25.28466797 116.5078125 C27.00341797 117.57421875 27.00341797 117.57421875 29.19091797 120.32421875 C29.34737277 128.29137874 26.14253633 136.04547056 23.19091797 143.32421875 C20.1477486 143.01820351 18.63969867 142.85193808 16.61694336 140.47338867 C16.17858154 139.67521729 15.74021973 138.8770459 15.28857422 138.0546875 C14.54124023 136.71954102 14.54124023 136.71954102 13.77880859 135.35742188 C13.27542969 134.41833984 12.77205078 133.47925781 12.25341797 132.51171875 C11.75390625 131.61517578 11.25439453 130.71863281 10.73974609 129.79492188 C8.04143307 124.91010488 5.48927531 119.96097836 3.0012207 114.96606445 C2.47173325 113.90402298 1.94224579 112.84198151 1.39671326 111.74775696 C0.99880081 110.94798935 0.60088837 110.14822174 0.19091797 109.32421875 C0.1806105 110.44253082 0.17030304 111.5608429 0.15968323 112.71304321 C0.06034752 123.44402693 -0.04248191 134.17497272 -0.14842129 144.90589333 C-0.20273362 150.41787964 -0.25596702 155.92987121 -0.30639648 161.44189453 C-0.55709182 188.74557262 -0.97891746 216.03166732 -1.80908203 243.32421875 C-8.73908203 243.32421875 -15.66908203 243.32421875 -22.80908203 243.32421875 C-23.86466453 222.10612357 -24.11843949 200.9039787 -24.34130859 179.66418457 C-24.39234587 174.87635315 -24.44759408 170.08857028 -24.50244141 165.30078125 C-24.6086737 155.97530228 -24.71039399 146.64978041 -24.80908203 137.32421875 C-30.99042215 146.81523984 -37.1218765 156.31437667 -42.90869141 166.05273438 C-51.46198685 180.25662318 -51.46198685 180.25662318 -56.80908203 182.32421875 C-57.79908203 182.32421875 -58.78908203 182.32421875 -59.80908203 182.32421875 C-58.48526496 178.85981884 -56.96996915 175.62470851 -55.19970703 172.3671875 C-49.21427686 161.22012419 -43.83266024 150.31806971 -39.80908203 138.32421875 C-39.38369141 137.17953125 -38.95830078 136.03484375 -38.52001953 134.85546875 C-32.08899374 117.02219479 -29.4216445 98.02466593 -26.80908203 79.32421875 C-36.70908203 79.32421875 -46.60908203 79.32421875 -56.80908203 79.32421875 C-56.80908203 76.02421875 -56.80908203 72.72421875 -56.80908203 69.32421875 C-45.58908203 69.32421875 -34.36908203 69.32421875 -22.80908203 69.32421875 C-22.80908203 54.80421875 -22.80908203 40.28421875 -22.80908203 25.32421875 C-26.76908203 26.31421875 -30.72908203 27.30421875 -34.80908203 28.32421875 C-38.30713351 28.51656029 -41.58415321 28.62013653 -45.05908203 28.51171875 C-46.3371875 28.49141602 -46.3371875 28.49141602 -47.64111328 28.47070312 C-49.69739057 28.43604677 -51.75333243 28.38227862 -53.80908203 28.32421875 C-50.90789895 25.09527624 -48.38889667 23.46678796 -44.36376953 21.87890625 C-43.29457275 21.44642578 -42.22537598 21.01394531 -41.1237793 20.56835938 C-39.9886792 20.11654297 -38.8535791 19.66472656 -37.68408203 19.19921875 C-29.35052125 15.78353058 -21.23130327 12.2332502 -13.37158203 7.82421875 C-12.27402588 7.21102783 -12.27402588 7.21102783 -11.15429688 6.58544922 C-7.48832902 4.54819716 -7.48832902 4.54819716 -4.47680664 1.69335938 C-2.80908203 0.32421875 -2.80908203 0.32421875 0 0 Z " fill="#079FB4" transform="translate(629.80908203125,511.67578125)"/>
  <path d="M0 0 C1.25472107 0.00607269 1.25472107 0.00607269 2.53479004 0.01226807 C3.39286255 0.01035461 4.25093506 0.00844116 5.13500977 0.00646973 C6.95072726 0.00510763 8.76645449 0.00880579 10.58215332 0.01715088 C13.36736854 0.02785015 16.15193872 0.01725653 18.93713379 0.00445557 C20.69885397 0.00577716 22.46057374 0.00833954 24.22229004 0.01226807 C25.05877075 0.0082196 25.89525146 0.00417114 26.75708008 0 C32.6486217 0.04797473 32.6486217 0.04797473 34.87854004 2.27789307 C35.15536213 4.96360016 35.15536213 4.96360016 35.19306946 8.44940186 C35.21171555 9.76713593 35.23036163 11.08487 35.24957275 12.4425354 C35.26003877 13.91174124 35.27022206 15.38094912 35.28015137 16.85015869 C35.29758811 18.39086712 35.31574808 19.93156751 35.33457947 21.47225952 C35.39224316 26.54279973 35.42777681 31.61338956 35.46057129 36.68414307 C35.46651739 37.54714712 35.47246349 38.41015118 35.47858977 39.29930687 C35.53453762 47.44147504 35.58321029 55.58364966 35.6127367 63.72595978 C35.6508409 74.13444407 35.72586547 84.54115606 35.85257512 94.94895029 C35.93865854 102.2696753 35.98232124 109.58992555 35.99485415 116.91114187 C36.00344786 121.28184941 36.03036654 125.65061065 36.10270119 130.02076721 C36.16992291 134.13871435 36.18428701 138.25358739 36.15931129 142.37197495 C36.15914516 143.87725149 36.17758061 145.38267201 36.21671677 146.88743973 C36.36901947 153.08107921 36.43406123 158.28540623 32.46172142 163.37362671 C29.80896725 165.96416134 26.9127017 168.14759172 23.87854004 170.27789307 C23.2671861 170.7487307 22.65583216 171.21956833 22.02595234 171.70467377 C14.01611363 177.69520982 2.11785357 183.27789307 -8.12145996 183.27789307 C-8.12145996 162.81789307 -8.12145996 142.35789307 -8.12145996 121.27789307 C3.09854004 121.27789307 14.31854004 121.27789307 25.87854004 121.27789307 C25.87854004 116.98789307 25.87854004 112.69789307 25.87854004 108.27789307 C14.65854004 108.27789307 3.43854004 108.27789307 -8.12145996 108.27789307 C-8.12145996 92.76789307 -8.12145996 77.25789307 -8.12145996 61.27789307 C3.09854004 61.27789307 14.31854004 61.27789307 25.87854004 61.27789307 C25.21854004 56.65789307 24.55854004 52.03789307 23.87854004 47.27789307 C22.3226416 47.28949463 20.76674316 47.30109619 19.16369629 47.31304932 C17.08947875 47.32243492 15.0152599 47.33153429 12.94104004 47.34039307 C11.91945801 47.34877197 10.89787598 47.35715088 9.84533691 47.36578369 C8.83664551 47.36900635 7.8279541 47.372229 6.78869629 47.37554932 C5.41403198 47.38340454 5.41403198 47.38340454 4.01159668 47.39141846 C-0.06239395 47.2437986 -4.07685294 46.77243369 -8.12145996 46.27789307 C-8.17205877 40.04827329 -8.20715058 33.81870626 -8.23132324 27.58892822 C-8.24139747 25.46846537 -8.25505729 23.34801646 -8.27233887 21.2276001 C-8.29652486 18.18443364 -8.30792866 15.1414504 -8.31677246 12.09820557 C-8.32709503 11.14608185 -8.3374176 10.19395813 -8.34805298 9.21298218 C-8.34820404 8.33222015 -8.3483551 7.45145813 -8.34851074 6.54400635 C-8.35295197 5.7667923 -8.35739319 4.98957825 -8.36196899 4.18881226 C-7.75265299 -0.65239318 -3.97970516 0.03240667 0 0 Z " fill="#FEFEFE" transform="translate(194.1214599609375,98.72210693359375)"/>
  <path d="M0 0 C6.6 0 13.2 0 20 0 C20 47.52 20 95.04 20 144 C24.95 143.01 24.95 143.01 30 142 C32.5390414 141.87722237 35.08348035 141.82516628 37.625 141.875 C38.83414063 141.89304687 40.04328125 141.91109375 41.2890625 141.9296875 C42.18367187 141.95289063 43.07828125 141.97609375 44 142 C44 144.64 44 147.28 44 150 C40.89688362 150.67161995 37.79234832 151.33643675 34.6875 152 C33.80642578 152.19078125 32.92535156 152.3815625 32.01757812 152.578125 C31.17001953 152.75859375 30.32246094 152.9390625 29.44921875 153.125 C28.66893311 153.29257812 27.88864746 153.46015625 27.0847168 153.6328125 C25 154 25 154 22 154 C22.00580078 155.25498291 22.01160156 156.50996582 22.01757812 157.80297852 C22.07039115 175.08492291 21.81198037 192.35888512 21.53643799 209.63793945 C21.47480566 213.5274863 21.41523797 217.41706478 21.35546875 221.30664062 C21.23893858 228.87112543 21.12002472 236.43556968 21 244 C14.07 244 7.14 244 0 244 C0 214.96 0 185.92 0 156 C-3.96 156.99 -7.92 157.98 -12 159 C-18.125 159.5625 -18.125 159.5625 -20.8203125 159.69140625 C-23.4925245 159.95074869 -25.95421803 160.37453499 -28.57421875 160.92578125 C-34.5739097 162.17048153 -40.60498183 162.91155083 -46.6875 163.625 C-47.77611328 163.7590625 -48.86472656 163.893125 -49.98632812 164.03125 C-55.36199678 164.6717552 -60.586202 165.17039135 -66 165 C-66 162.03 -66 159.06 -66 156 C-65.35160156 155.90203125 -64.70320312 155.8040625 -64.03515625 155.703125 C-58.45567765 154.85263943 -52.88005474 153.9834997 -47.30859375 153.08203125 C-37.00592197 151.41505296 -26.70120641 149.76545955 -16.375 148.25 C-15.529375 148.12246338 -14.68375 147.99492676 -13.8125 147.86352539 C-12.61753906 147.6913147 -12.61753906 147.6913147 -11.3984375 147.515625 C-10.37242432 147.36528809 -10.37242432 147.36528809 -9.32568359 147.21191406 C-6.22914812 146.92976071 -3.10936367 147 0 147 C0 98.49 0 49.98 0 0 Z " fill="#049EB4" transform="translate(709,510)"/>
  <path d="M0 0 C6.27 0 12.54 0 19 0 C19 4.95 19 9.9 19 15 C21.0728125 14.9690625 21.0728125 14.9690625 23.1875 14.9375 C29.49292902 14.92845347 35.71944481 15.46548466 42 16 C42 10.72 42 5.44 42 0 C47.94 0 53.88 0 60 0 C60 34.65 60 69.3 60 105 C54.06 105 48.12 105 42 105 C42 98.73 42 92.46 42 86 C34.41 86 26.82 86 19 86 C19 92.93 19 99.86 19 107 C12.73 107 6.46 107 0 107 C0 71.69 0 36.38 0 0 Z " fill="#019DB3" transform="translate(850,642)"/>
  <path d="M0 0 C10.39614413 -0.04627317 20.7922639 -0.08184359 31.18848991 -0.10362434 C36.01550805 -0.11407626 40.84245591 -0.12826104 45.66943359 -0.15087891 C50.32485778 -0.17255722 54.98021422 -0.18455801 59.63568497 -0.18975449 C61.41475619 -0.19345928 63.19382356 -0.20069348 64.97286606 -0.21146011 C67.45839294 -0.22590854 69.94363733 -0.22798075 72.42919922 -0.22705078 C73.54050201 -0.23783661 73.54050201 -0.23783661 74.67425537 -0.24884033 C79.77189568 -0.22810432 79.77189568 -0.22810432 82 2 C82.25396729 4.1809845 82.25396729 4.1809845 82.25878906 6.92114258 C82.26509338 7.94593216 82.27139771 8.97072174 82.27789307 10.02656555 C82.2738446 11.13799423 82.26979614 12.24942291 82.265625 13.39453125 C82.26753845 14.53403732 82.2694519 15.6735434 82.27142334 16.84757996 C82.27278654 19.26272807 82.26908074 21.67788347 82.26074219 24.09301758 C82.25007425 27.78678948 82.26061795 31.48007173 82.2734375 35.17382812 C82.27211535 37.51823024 82.26955181 39.86263205 82.265625 42.20703125 C82.26967346 43.31238724 82.27372192 44.41774323 82.27789307 45.55659485 C82.26843658 47.10796394 82.26843658 47.10796394 82.25878906 48.69067383 C82.25719788 49.59731277 82.25560669 50.50395172 82.25396729 51.43806458 C81.97416114 54.26065364 81.16727791 56.42753861 80 59 C69.86462398 59.04627451 59.72927296 59.08184427 49.59381294 59.10362434 C44.88786217 59.11407597 40.18198349 59.12826022 35.47607422 59.15087891 C30.93735924 59.17255826 26.39871376 59.18455823 21.85995102 59.18975449 C20.12553691 59.19345909 18.39112674 59.20069294 16.6567421 59.21146011 C14.23347914 59.22590995 11.81050591 59.2279807 9.38720703 59.22705078 C8.30395645 59.23783661 8.30395645 59.23783661 7.19882202 59.24884033 C2.22810432 59.22810432 2.22810432 59.22810432 0 57 C-0.24050903 54.59555054 -0.24050903 54.59555054 -0.22705078 51.54052734 C-0.22689972 50.39949554 -0.22674866 49.25846375 -0.22659302 48.08285522 C-0.21627045 46.84637238 -0.20594788 45.60988953 -0.1953125 44.3359375 C-0.1924826 43.07359283 -0.18965271 41.81124817 -0.18673706 40.51065063 C-0.17742131 37.15353056 -0.15944835 33.79668088 -0.1373291 30.43963623 C-0.1168755 27.01446878 -0.1077364 23.58927341 -0.09765625 20.1640625 C-0.07556458 13.44263329 -0.04206377 6.72133227 0 0 Z " fill="#FCFDFE" transform="translate(1138,127)"/>
  <path d="M0 0 C0.87454834 0.00523682 1.74909668 0.01047363 2.65014648 0.01586914 C3.59438477 0.0190918 4.53862305 0.02231445 5.51147461 0.02563477 C6.50469727 0.03401367 7.49791992 0.04239258 8.52124023 0.05102539 C9.51833008 0.05553711 10.51541992 0.06004883 11.54272461 0.06469727 C14.01478872 0.07652532 16.48673541 0.0930069 18.95874023 0.11352539 C19.62199071 18.72790501 18.57530625 37.32782168 7.20874023 53.05102539 C3.75657451 58.1481102 4.0588444 64.14367722 3.95874023 70.11352539 C4.95454102 69.60692383 4.95454102 69.60692383 5.97045898 69.09008789 C9.69349168 67.87341054 12.94236161 68.12212552 16.77124023 68.48852539 C17.81054688 68.57360352 17.81054688 68.57360352 18.87084961 68.66040039 C20.56772469 68.80083143 22.26339272 68.95571946 23.95874023 69.11352539 C24.00513903 78.26713438 24.04064774 87.42070271 24.06236458 96.57440376 C24.07278906 100.82511686 24.08692384 105.07574932 24.10961914 109.32641602 C24.13139519 113.43073186 24.14331891 117.53497028 24.14849472 121.63933945 C24.15218193 123.20298353 24.15938214 124.76662352 24.17020035 126.33023453 C24.18477871 128.52518019 24.18671555 130.71980841 24.18579102 132.91479492 C24.19023224 134.16277863 24.19467346 135.41076233 24.19924927 136.69656372 C23.95363022 140.18612444 23.32535125 142.89931064 21.95874023 146.11352539 C21.29874023 146.44352539 20.63874023 146.77352539 19.95874023 147.11352539 C19.01814503 144.48959961 18.08122828 141.86444926 17.14624023 139.23852539 C16.88520508 138.51149414 16.62416992 137.78446289 16.35522461 137.03540039 C12.96470769 127.49172313 10.29700904 117.79225025 7.77124023 107.98852539 C7.49860352 106.93665039 7.2259668 105.88477539 6.94506836 104.80102539 C6.2812604 102.23895957 5.61918156 99.67646071 4.95874023 97.11352539 C4.30686938 118.9874139 8.02609152 139.95252589 13.83374023 160.98852539 C16.50235585 171.78710953 12.45832106 179.85257322 6.95874023 189.11352539 C0.10066601 199.73288346 0.10066601 199.73288346 -4.04125977 201.11352539 C-5.28070669 193.41809709 -5.18226444 185.75717576 -5.1706543 177.98022461 C-5.172011 176.45185301 -5.17379244 174.92348174 -5.17596436 173.39511108 C-5.1805059 169.26307412 -5.17876286 165.13106225 -5.17558527 160.99902487 C-5.17304562 156.66700265 -5.17540359 152.33498251 -5.17697144 148.00296021 C-5.17878805 140.73170589 -5.17639972 133.46046175 -5.17163086 126.18920898 C-5.16618512 117.78901858 -5.1679552 109.38885243 -5.17345726 100.9886626 C-5.17799796 93.76638452 -5.17863437 86.54411373 -5.1760186 79.32183468 C-5.17446162 75.01253494 -5.17424627 70.7032466 -5.17755508 66.3939476 C-5.18044782 62.3441034 -5.17843231 58.29429045 -5.17266083 54.24444962 C-5.17134094 52.76018577 -5.17171425 51.27591928 -5.17392349 49.79165649 C-5.17666518 47.76229955 -5.17261402 45.73293685 -5.16824341 43.70358276 C-5.16786638 42.56910643 -5.16748936 41.43463009 -5.16710091 40.26577568 C-5.04216929 37.13630844 -4.62570018 34.18752437 -4.04125977 31.11352539 C-7.34125977 31.11352539 -10.64125977 31.11352539 -14.04125977 31.11352539 C-13.57185409 24.20935021 -10.85068821 18.49730764 -8.04125977 12.23852539 C-7.57719727 11.18149414 -7.11313477 10.12446289 -6.63500977 9.03540039 C-2.70647729 0.1505217 -2.70647729 0.1505217 0 0 Z " fill="#F8FCFD" transform="translate(349.041259765625,548.886474609375)"/>
  <path d="M0 0 C8.58 0 17.16 0 26 0 C22.62566944 11.24776854 22.62566944 11.24776854 20.37109375 16.48828125 C19.89349609 17.60654297 19.41589844 18.72480469 18.92382812 19.87695312 C18.43333984 21.01068359 17.94285156 22.14441406 17.4375 23.3125 C16.4567226 25.60012811 15.47624234 27.88788365 14.49609375 30.17578125 C14.06482178 31.17520752 13.6335498 32.17463379 13.18920898 33.2043457 C12.08950314 35.78959137 11.03237917 38.38724751 10 41 C11.65 41 13.3 41 15 41 C15 89.18 15 137.36 15 187 C8.73 187 2.46 187 -4 187 C-4 145.09 -4 103.18 -4 60 C-4.99 60 -5.98 60 -7 60 C-7.23203125 60.84820313 -7.4640625 61.69640625 -7.703125 62.5703125 C-9.20493525 66.54196733 -11.22893768 69.49528804 -13.75 72.875 C-14.19956055 73.4848877 -14.64912109 74.09477539 -15.11230469 74.72314453 C-16.0035672 75.93170676 -16.89705722 77.13863006 -17.79296875 78.34375 C-18.82805068 79.7640566 -19.81032104 81.22258963 -20.78125 82.6875 C-22.09540216 84.64474789 -23.27597296 86.39285615 -25 88 C-28.375 88.5 -28.375 88.5 -31 88 C-30.37220045 84.94086518 -29.35512355 82.64709273 -27.7421875 79.98046875 C-27.28473145 79.2131543 -26.82727539 78.44583984 -26.35595703 77.65527344 C-25.86724121 76.8409082 -25.37852539 76.02654297 -24.875 75.1875 C-10.95086401 51.50429816 -3.97075486 27.00113304 0 0 Z " fill="#049DB3" transform="translate(69,568)"/>
  <path d="M0 0 C66.66 0 133.32 0 202 0 C202 5.61 202 11.22 202 17 C135.34 17 68.68 17 0 17 C0 11.39 0 5.78 0 0 Z " fill="#019DB3" transform="translate(1078,46)"/>
  <path d="M0 0 C8.58 0 17.16 0 26 0 C25.67 2.31 25.34 4.62 25 7 C24.15756771 16.56762383 25.65211142 23.47585003 30 32 C30.46921875 32.95003906 30.9384375 33.90007813 31.421875 34.87890625 C34.65897877 41.13556649 38.39333362 46.67503845 43 52 C43.60972656 52.71671875 44.21945312 53.4334375 44.84765625 54.171875 C51.29331194 61.17640257 59.16716248 65.893209 67.24169922 70.79248047 C69.05322542 72.03655275 70.49829957 73.40122928 72 75 C71.73445312 75.65742187 71.46890625 76.31484375 71.1953125 76.9921875 C67.77337659 86.20893459 66.82285963 95.25560968 66 105 C41.95428128 90.50435396 29.11164762 62.26405036 22 36 C21.28881927 33.00885752 20.62684044 30.00988468 20 27 C16.36144528 32.65460401 13.06284069 38.43953442 9.83764648 44.33886719 C-0.49558515 63.22891212 -10.56300358 80.77044068 -26 96 C-26.51336914 96.54889893 -27.02673828 97.09779785 -27.55566406 97.66333008 C-29 99 -29 99 -31.04296875 99.29296875 C-33.02864583 99.1953125 -35.01432292 99.09765625 -37 99 C-34.02981724 93.30111276 -30.88844829 87.76614287 -27.40649414 82.36669922 C-10.90868884 56.72579702 -5.00445239 29.66925348 0 0 Z " fill="#0A9FB5" transform="translate(947,512)"/>
  <path d="M0 0 C1.02202515 0.02429077 1.02202515 0.02429077 2.06469727 0.04907227 C4.27406553 0.1111487 6.4797418 0.20822632 8.6875 0.3125 C9.47415039 0.34537109 10.26080078 0.37824219 11.07128906 0.41210938 C25.40394304 1.02894304 25.40394304 1.02894304 26.6875 2.3125 C26.78721786 4.22708282 26.81830589 6.14532317 26.8203125 8.0625 C26.82160156 9.2278125 26.82289063 10.393125 26.82421875 11.59375 C26.82035156 12.8209375 26.81648438 14.048125 26.8125 15.3125 C26.81636719 16.5396875 26.82023437 17.766875 26.82421875 19.03125 C26.82292969 20.1965625 26.82164062 21.361875 26.8203125 22.5625 C26.81918457 23.64015625 26.81805664 24.7178125 26.81689453 25.828125 C26.6875 28.3125 26.6875 28.3125 25.6875 29.3125 C24.05277118 29.39950342 22.41435945 29.41951063 20.77734375 29.41015625 C19.78798828 29.40693359 18.79863281 29.40371094 17.77929688 29.40039062 C16.73837891 29.39201172 15.69746094 29.38363281 14.625 29.375 C13.58021484 29.37048828 12.53542969 29.36597656 11.45898438 29.36132812 C8.8684334 29.34949913 6.27799441 29.33301689 3.6875 29.3125 C3.6875 31.9525 3.6875 34.5925 3.6875 37.3125 C11.2775 37.3125 18.8675 37.3125 26.6875 37.3125 C26.6875 44.9025 26.6875 52.4925 26.6875 60.3125 C19.0975 60.3125 11.5075 60.3125 3.6875 60.3125 C4.1825 63.7775 4.1825 63.7775 4.6875 67.3125 C11.9475 67.9725 19.2075 68.6325 26.6875 69.3125 C26.6875 78.8825 26.6875 88.4525 26.6875 98.3125 C17.1175 98.3125 7.5475 98.3125 -2.3125 98.3125 C-2.3125 74.5525 -2.3125 50.7925 -2.3125 26.3125 C-8.5825 26.3125 -14.8525 26.3125 -21.3125 26.3125 C-21.3125 29.2825 -21.3125 32.2525 -21.3125 35.3125 C-26.9225 35.3125 -32.5325 35.3125 -38.3125 35.3125 C-37.17352933 30.75661732 -36.2396567 30.04991836 -32.75 27.125 C-25.65240536 20.93865146 -19.70507909 14.4973631 -14.9296875 6.35546875 C-10.73302919 1.05389316 -6.57821312 -0.19486025 0 0 Z " fill="#FAFDFD" transform="translate(394.3125,574.6875)"/>
  <path d="M0 0 C15.31628963 5.56955987 31.91032721 22.39888919 39 37 C38.63508536 40.9449151 37.39538012 43.22380062 34.9453125 46.28515625 C34.33042969 47.06310547 33.71554688 47.84105469 33.08203125 48.64257812 C32.43621094 49.44115234 31.79039063 50.23972656 31.125 51.0625 C29.85669395 52.65749095 28.58846222 54.252541 27.3203125 55.84765625 C26.75586426 56.54898682 26.19141602 57.25031738 25.60986328 57.97290039 C24.03537927 59.95545131 22.50930463 61.96754199 21 64 C22.01312256 64.05534912 23.02624512 64.11069824 24.07006836 64.16772461 C27.86659743 64.37580779 31.66293597 64.58720956 35.45922852 64.79956055 C37.09524689 64.89062058 38.73131411 64.98080765 40.36743164 65.07006836 C57.10216541 65.98417191 57.10216541 65.98417191 65 67 C65 71.95 65 76.9 65 82 C31.67 82 -1.66 82 -36 82 C-36 77.05 -36 72.1 -36 67 C-19.17 67 -2.34 67 15 67 C13.205625 60.9671875 13.205625 60.9671875 11.375 54.8125 C8.74634872 45.94464381 6.12642204 37.07431454 3.5625 28.1875 C3.31612793 27.34227783 3.06975586 26.49705566 2.81591797 25.6262207 C0.92730388 19.04023277 -0.13281713 13.01607872 -0.0625 6.125 C-0.05347656 4.97257812 -0.04445312 3.82015625 -0.03515625 2.6328125 C-0.02355469 1.76398437 -0.01195312 0.89515625 0 0 Z " fill="#0A9FB5" transform="translate(86,35)"/>
  <path d="M0 0 C5.23273331 -0.04935824 10.46533176 -0.08569949 15.69824219 -0.10986328 C17.47919067 -0.11993431 19.26012257 -0.13359185 21.04101562 -0.15087891 C23.59769783 -0.17507913 26.15416185 -0.18647184 28.7109375 -0.1953125 C29.90944839 -0.21079636 29.90944839 -0.21079636 31.13217163 -0.22659302 C33.0895722 -0.22699226 35.04643077 -0.12241069 37 0 C39.78091885 2.78091885 39.25353599 4.45085225 39.25878906 8.34570312 C39.2622937 8.99627182 39.26579834 9.64684052 39.26940918 10.31712341 C39.27822629 12.47194017 39.27237763 14.62642978 39.265625 16.78125 C39.26697166 18.27575748 39.2689122 19.77026453 39.27142334 21.26477051 C39.27437457 24.39872402 39.27007707 27.53256362 39.26074219 30.66650391 C39.24934757 34.68850013 39.25590706 38.71022945 39.26788712 42.73221588 C39.2751058 45.81880717 39.27281777 48.90533493 39.26763153 51.9919281 C39.26629505 53.47513358 39.26794269 54.95834478 39.27259064 56.44154358 C39.27765612 58.51261731 39.26994584 60.58325566 39.25878906 62.65429688 C39.25719788 63.83407104 39.25560669 65.01384521 39.25396729 66.22937012 C39 69 39 69 37 71 C34.28689351 71.1874551 31.67770915 71.25565406 28.96484375 71.23046875 C27.77405968 71.22978142 27.77405968 71.22978142 26.55921936 71.2290802 C24.88052883 71.22605765 23.2018411 71.21817125 21.52319336 71.20581055 C18.94439842 71.18754885 16.36596223 71.18530087 13.78710938 71.18554688 C12.15885104 71.18063196 10.53059516 71.17480376 8.90234375 71.16796875 C7.73831276 71.16629951 7.73831276 71.16629951 6.55076599 71.16459656 C1.11605007 71.11605007 1.11605007 71.11605007 0 70 C-0.09429342 67.82194281 -0.11742538 65.6407872 -0.11352539 63.46069336 C-0.11367142 62.77779739 -0.11381744 62.09490143 -0.1139679 61.39131165 C-0.11326876 59.12412386 -0.1054764 56.85701726 -0.09765625 54.58984375 C-0.09579207 53.02185613 -0.09436817 51.45386793 -0.09336853 49.88587952 C-0.08954334 45.75123497 -0.07971306 41.61662534 -0.06866455 37.48199463 C-0.05845044 33.26599602 -0.05387091 29.04999178 -0.04882812 24.83398438 C-0.03809079 16.55597353 -0.02101436 8.2779911 0 0 Z " fill="#FEFEFE" transform="translate(1123,347)"/>
  <path d="M0 0 C8.58 0 17.16 0 26 0 C26 33.66 26 67.32 26 102 C17.42 102 8.84 102 0 102 C0 68.34 0 34.68 0 0 Z " fill="#F8FCFC" transform="translate(84,295)"/>
  <path d="M0 0 C12.21 0 24.42 0 37 0 C37 23.43 37 46.86 37 71 C24.79 71 12.58 71 0 71 C0 47.57 0 24.14 0 0 Z " fill="#FCFEFE" transform="translate(1196,347)"/>
  <path d="M0 0 C9.3740625 -0.0309375 9.3740625 -0.0309375 18.9375 -0.0625 C20.91226318 -0.071604 22.88702637 -0.08070801 24.92163086 -0.09008789 C26.47770113 -0.09300705 28.03377216 -0.09555561 29.58984375 -0.09765625 C30.81290222 -0.1053302 30.81290222 -0.1053302 32.06066895 -0.11315918 C34.04080523 -0.1134694 36.02084654 -0.06238096 38 0 C39 1 39 1 39.12025452 3.36012268 C39.11803391 4.40603073 39.11581329 5.45193878 39.11352539 6.52954102 C39.11344986 7.71068985 39.11337433 8.89183868 39.11329651 10.10877991 C39.10813522 11.3941716 39.10297394 12.67956329 39.09765625 14.00390625 C39.0962413 15.31205795 39.09482635 16.62020966 39.09336853 17.96800232 C39.0895441 21.45162859 39.07971446 24.93521339 39.06866455 28.41882324 C39.05844882 31.97126708 39.05387056 35.52371759 39.04882812 39.07617188 C39.03809212 46.05079832 39.0210166 53.02539717 39 60 C34.75553922 60.74521649 30.77807977 61.12842881 26.46484375 61.1328125 C25.24345703 61.13410156 24.02207031 61.13539063 22.76367188 61.13671875 C21.50103516 61.13285156 20.23839844 61.12898438 18.9375 61.125 C17.67099609 61.12886719 16.40449219 61.13273437 15.09960938 61.13671875 C13.87951172 61.13542969 12.65941406 61.13414062 11.40234375 61.1328125 C9.73933228 61.13112061 9.73933228 61.13112061 8.04272461 61.12939453 C5 61 5 61 0 60 C0 40.2 0 20.4 0 0 Z " fill="#FEFEFE" transform="translate(1123,270)"/>
  <path d="M0 0 C12.21 0 24.42 0 37 0 C37 20.13 37 40.26 37 61 C22.20302376 63.27645788 22.20302376 63.27645788 16.25 63.25 C14.49429687 63.25773437 14.49429687 63.25773437 12.703125 63.265625 C9 63 9 63 0 61 C0 40.87 0 20.74 0 0 Z " fill="#FAFDFD" transform="translate(1196,269)"/>
  <path d="M0 0 C0.79719955 0.00222061 1.59439911 0.00444122 2.41575623 0.00672913 C3.32925842 0.00684998 4.24276062 0.00697083 5.1839447 0.00709534 C6.15045959 0.0122113 7.11697449 0.01732727 8.11277771 0.02259827 C9.4381958 0.02410889 9.4381958 0.02410889 10.79039001 0.02565002 C14.10489695 0.03089921 17.41938545 0.04486035 20.73387146 0.05775452 C28.13824646 0.07837952 35.54262146 0.09900452 43.17137146 0.12025452 C43.17137146 16.95025452 43.17137146 33.78025452 43.17137146 51.12025452 C27.99137146 51.12025452 12.81137146 51.12025452 -2.82862854 51.12025452 C-2.82862854 43.86025452 -2.82862854 36.60025452 -2.82862854 29.12025452 C8.72137146 29.12025452 20.27137146 29.12025452 32.17137146 29.12025452 C32.17137146 26.15025452 32.17137146 23.18025452 32.17137146 20.12025452 C20.62137146 20.12025452 9.07137146 20.12025452 -2.82862854 20.12025452 C-2.85956604 15.44869202 -2.85956604 15.44869202 -2.89112854 10.68275452 C-2.90023254 9.69992493 -2.90933655 8.71709534 -2.91871643 7.70448303 C-2.92121399 6.93547668 -2.92371155 6.16647034 -2.92628479 5.37416077 C-2.93414001 4.18802185 -2.93414001 4.18802185 -2.94215393 2.97792053 C-2.78879751 0.46848178 -2.50943142 0.16502557 0 0 Z " fill="#FAFDFD" transform="translate(132.82862854003906,569.8797454833984)"/>
  <path d="M0 0 C8.25 0 16.5 0 25 0 C26 1 26 1 26.12025452 3.70179749 C26.1169236 5.51048561 26.1169236 5.51048561 26.11352539 7.35571289 C26.11367142 8.01910172 26.11381744 8.68249054 26.1139679 9.36598206 C26.11326881 11.56823956 26.10547665 13.77041345 26.09765625 15.97265625 C26.09579206 17.49580336 26.09436816 19.01895107 26.09336853 20.542099 C26.08954346 24.55837651 26.07971328 28.57461808 26.06866455 32.59088135 C26.05845019 36.68623366 26.05387086 40.78159176 26.04882812 44.87695312 C26.03809099 52.91798712 26.02049429 60.95898495 26 69 C17.42 69 8.84 69 0 69 C0 46.23 0 23.46 0 0 Z " fill="#F9FCFD" transform="translate(1142,592)"/>
  <path d="M0 0 C6.60493553 1.84822319 11.87755366 4.47918145 17.5 8.375 C18.26610596 8.89594238 19.03221191 9.41688477 19.8215332 9.95361328 C28.11317188 15.65448613 36.14469431 21.71330609 44 28 C44.66717041 28.51691406 45.33434082 29.03382812 46.02172852 29.56640625 C46.65908936 30.07816406 47.2964502 30.58992188 47.953125 31.1171875 C48.52579102 31.5694873 49.09845703 32.02178711 49.68847656 32.48779297 C51.36519423 34.42107466 51.46817053 35.72521277 51.5625 38.25 C51.42460689 39.83842255 51.23513864 41.42303757 51 43 C50.85304688 44.17755859 50.85304688 44.17755859 50.703125 45.37890625 C49.28782282 54.1962388 45.71373685 62.45527251 41 70 C35.5781387 69.66113367 31.90125994 66.50199183 28 63 C25.75457624 60.3057635 23.93149112 57.43947237 22.125 54.4375 C21.61888184 53.6132251 21.11276367 52.7889502 20.59130859 51.93969727 C-1.16765704 15.73264224 -1.16765704 15.73264224 0 0 Z " fill="#069EB4" transform="translate(1005,31)"/>
  <path d="M0 0 C7.92 0 15.84 0 24 0 C23.31885735 6.81142649 22.71935984 12.04438181 20.4375 18.25 C20.17211426 18.97743408 19.90672852 19.70486816 19.63330078 20.4543457 C6.91591778 53.9976331 -24.74471413 76.94471712 -56 92 C-60.29604619 93.89572599 -64.23403308 95.4109047 -69 95.1875 C-70.1446875 95.14689453 -70.1446875 95.14689453 -71.3125 95.10546875 C-72.1478125 95.05326172 -72.1478125 95.05326172 -73 95 C-68.84452268 90.26901869 -64.24629863 87.79359967 -58.6875 84.9375 C-34.526696 72.03560867 -13.31248677 53.95737572 -5 27 C-2.54721559 18.06198468 -1.02548077 9.22932696 0 0 Z " fill="#0EA1B6" transform="translate(985,663)"/>
  <path d="M0 0 C8.25 0 16.5 0 25 0 C22.20928468 27.90715324 6.26941124 48.0406421 -13.15209961 67.1159668 C-16.47962772 70.39919896 -19.67132371 73.72354819 -22.71484375 77.2734375 C-26.66818032 81.85175007 -31.13903109 86.39712446 -37.3515625 87.3671875 C-39.5625 87.375 -39.5625 87.375 -43 87 C-39.62613891 83.0205741 -36.20009111 79.10768778 -32.6875 75.25 C-31.12156276 73.50307504 -29.5591059 71.75302454 -28 70 C-27.25363281 69.16726563 -26.50726562 68.33453125 -25.73828125 67.4765625 C-9.21233834 48.26839849 -1.28012449 25.09043995 0 0 Z " fill="#0DA1B6" transform="translate(968,618)"/>
  <path d="M0 0 C29.37 0 58.74 0 89 0 C89 4.95 89 9.9 89 15 C59.63 15 30.26 15 0 15 C0 10.05 0 5.1 0 0 Z " fill="#079FB4" transform="translate(56,158)"/>
  <path d="M0 0 C8.58 0 17.16 0 26 0 C24.08681872 6.37727092 22.41780986 11.8402699 19.4375 17.625 C18.91978027 18.63904907 18.91978027 18.63904907 18.39160156 19.67358398 C11.70234103 32.53034272 3.73436466 44.0023877 -5.48876953 55.15332031 C-7.51592059 57.63043996 -9.48605063 60.14973605 -11.45263672 62.67504883 C-12.82604552 64.43718936 -14.21039558 66.19016135 -15.59765625 67.94140625 C-17.02771373 69.76211358 -18.43896991 71.59825056 -19.80859375 73.46484375 C-21.3125 75.4375 -21.3125 75.4375 -24 78 C-27.375 77.9375 -27.375 77.9375 -30 77 C-28.56627995 71.8512816 -26.22894204 68.01458995 -23.3125 63.625 C-10.92523708 44.26056722 -5.28034157 22.17743459 0 0 Z " fill="#0DA1B6" transform="translate(68,513)"/>
  <path d="M0 0 C0.77472656 0.00451172 1.54945313 0.00902344 2.34765625 0.01367188 C4.23180524 0.02530242 6.11591365 0.04323094 8 0.0625 C0.84604582 27.85286046 -13.96567431 49.00930057 -33.9375 69.25 C-34.71625488 70.04289429 -34.71625488 70.04289429 -35.51074219 70.85180664 C-43.57983046 78.85205048 -43.57983046 78.85205048 -48.875 79.3125 C-49.57625 79.23 -50.2775 79.1475 -51 79.0625 C-45.57778468 69.50632619 -45.57778468 69.50632619 -42.125 65.75 C-26.59742655 48.31196594 -20.71842846 23.52422641 -17 1.0625 C-11.28094617 0.23713655 -5.7732851 -0.06503701 0 0 Z " fill="#0DA0B6" transform="translate(969,579.9375)"/>
  <path d="M0 0 C7.59 0 15.18 0 23 0 C23 17.82 23 35.64 23 54 C15.41 54 7.82 54 0 54 C0 36.18 0 18.36 0 0 Z " fill="#F3FAFB" transform="translate(869,666)"/>
  <path d="M0 0 C29.37 0 58.74 0 89 0 C89 4.29 89 8.58 89 13 C59.63 13 30.26 13 0 13 C0 8.71 0 4.42 0 0 Z " fill="#0CA1B6" transform="translate(56,211)"/>
  <path d="M0 0 C15.18 0 30.36 0 46 0 C46 5.28 46 10.56 46 16 C43.03 16 40.06 16 37 16 C37 19.96 37 23.92 37 28 C34.45724451 29.27137774 32.65191799 29.129425 29.80859375 29.1328125 C28.78185547 29.13410156 27.75511719 29.13539063 26.69726562 29.13671875 C25.62154297 29.13285156 24.54582031 29.12898437 23.4375 29.125 C22.35791016 29.12886719 21.27832031 29.13273438 20.16601562 29.13671875 C18.6278418 29.13478516 18.6278418 29.13478516 17.05859375 29.1328125 C16.11298584 29.13168457 15.16737793 29.13055664 14.19311523 29.12939453 C12 29 12 29 11 28 C10.85349937 24.1177333 10.96098239 20.7355157 12 17 C11.21753906 17.01160156 10.43507812 17.02320313 9.62890625 17.03515625 C8.61699219 17.04417969 7.60507813 17.05320312 6.5625 17.0625 C5.55316406 17.07410156 4.54382813 17.08570313 3.50390625 17.09765625 C1 17 1 17 0 16 C0 10.72 0 5.44 0 0 Z " fill="#F6FBFC" transform="translate(130,629)"/>
  <path d="M0 0 C1.02574883 0.00848969 1.02574883 0.00848969 2.07221985 0.01715088 C4.25329024 0.03951684 6.43270878 0.08970735 8.61328125 0.140625 C10.0930752 0.16069 11.57289495 0.17894078 13.05273438 0.1953125 C16.67761885 0.23938026 20.30153881 0.30840678 23.92578125 0.390625 C24.16328622 11.03876453 21.51675056 20.1191257 17.92578125 30.078125 C17.67683105 30.78590088 17.42788086 31.49367676 17.17138672 32.22290039 C16.51297616 33.98189573 15.7279193 35.69234834 14.92578125 37.390625 C13.44078125 37.885625 13.44078125 37.885625 11.92578125 38.390625 C2.84619543 32.63283887 -6.65182041 21.65782001 -10.07421875 11.390625 C-10.51731955 5.29798902 -10.51731955 5.29798902 -9.00073242 2.19238281 C-6.12018149 -0.50163137 -3.88232393 -0.06338488 0 0 Z " fill="#FBFDFE" transform="translate(142.07421875,664.609375)"/>
  <path d="M0 0 C24.75 0 49.5 0 75 0 C75 2.97 75 5.94 75 9 C50.25 9 25.5 9 0 9 C0 6.03 0 3.06 0 0 Z " fill="#019DB3" transform="translate(845,552)"/>
  <path d="M0 0 C5.31071038 4.22442871 9.83887178 8.93380305 14.35742188 13.97290039 C16.80127801 16.68381313 19.2416087 19.28123671 21.99609375 21.6796875 C28.56817478 27.51532257 28.56817478 27.51532257 29.7578125 31.60546875 C30.07911898 39.02764836 27.44508351 46.0869928 25 53 C24.67 53.99 24.34 54.98 24 56 C20.54813447 54.84937816 20.13917293 53.91616001 18.55078125 50.796875 C18.24527344 50.16265625 17.93976562 49.5284375 17.625 48.875 C17.29628906 48.20210937 16.96757813 47.52921875 16.62890625 46.8359375 C13.20498231 39.66901427 10.02656254 32.3857451 6.89666748 25.08648682 C6.30219196 23.70318101 5.70331762 22.32175675 5.09991455 20.94232178 C4.23912325 18.96757927 3.39851055 16.98533988 2.5625 15 C2.06878906 13.845 1.57507813 12.69 1.06640625 11.5 C-0.186366 7.38833722 -0.19209039 4.27283986 0 0 Z " fill="#0DA1B6" transform="translate(664,521)"/>
  <path d="M0 0 C20.79 0 41.58 0 63 0 C63 3.3 63 6.6 63 10 C42.21 10 21.42 10 0 10 C0 6.7 0 3.4 0 0 Z " fill="#0CA1B6" transform="translate(849,581)"/>
  <path d="M0 0 C7.37398471 3.29582161 13.01284257 9.7459804 18.08984375 15.8671875 C20.05115171 18.13057713 20.05115171 18.13057713 22.69140625 20.4453125 C23.61824219 21.28835938 24.54507813 22.13140625 25.5 23 C26.3765625 23.763125 27.253125 24.52625 28.15625 25.3125 C30 28 30 28 30.00390625 31.78125 C29.13484369 36.29740416 27.37696807 40.35222671 25.4375 44.5 C25.10814453 45.22703125 24.77878906 45.9540625 24.43945312 46.703125 C23.63594979 48.47316134 22.8193415 50.23723917 22 52 C19.31363754 50.99844325 18.19347575 50.34010001 16.75488281 47.8112793 C16.2342627 46.45643433 16.2342627 46.45643433 15.703125 45.07421875 C15.10636963 43.55187622 15.10636963 43.55187622 14.49755859 41.9987793 C14.08586426 40.90605713 13.67416992 39.81333496 13.25 38.6875 C12.81896973 37.5735083 12.38793945 36.4595166 11.94384766 35.31176758 C11.05518023 33.00963814 10.17258157 30.70515735 9.29589844 28.3984375 C8.07427131 25.19477329 6.82745773 22.00236398 5.5703125 18.8125 C4.83777654 16.93779879 4.10596677 15.06281361 3.375 13.1875 C3.03243164 12.31762451 2.68986328 11.44774902 2.33691406 10.55151367 C2.0272168 9.74431885 1.71751953 8.93712402 1.3984375 8.10546875 C1.12692871 7.40574951 0.85541992 6.70603027 0.57568359 5.98510742 C0 4 0 4 0 0 Z " fill="#0DA1B6" transform="translate(666,593)"/>
  <path d="M0 0 C20.13 0 40.26 0 61 0 C61 2.97 61 5.94 61 9 C40.87 9 20.74 9 0 9 C0 6.03 0 3.06 0 0 Z " fill="#029DB3" transform="translate(850,615)"/>
  <path d="M0 0 C6.19335749 2.65629328 11.56672826 5.95321103 16.875 10.0625 C17.4218042 10.4857959 17.9686084 10.9090918 18.53198242 11.34521484 C21.54907188 13.72896179 24.34308889 16.22115336 27 19 C24.03935279 25.78481651 20.09421447 30.65849356 15 36 C11.74712651 34.95850981 10.97422352 33.95579559 9.21875 30.9453125 C8.63058086 29.67884748 8.05843328 28.40485501 7.5 27.125 C7.19956787 26.45533203 6.89913574 25.78566406 6.58959961 25.09570312 C-0.76392257 8.40314832 -0.76392257 8.40314832 0 0 Z " fill="#0B9FB5" transform="translate(872,511)"/>
  <path d="M0 0 C10.83984375 -0.09765625 10.83984375 -0.09765625 14 0 C15 1 15 1 15.11352539 3.50024414 C15.10828857 4.58426514 15.10305176 5.66828613 15.09765625 6.78515625 C15.09443359 7.95498047 15.09121094 9.12480469 15.08789062 10.33007812 C15.07951172 11.56177734 15.07113281 12.79347656 15.0625 14.0625 C15.05798828 15.29806641 15.05347656 16.53363281 15.04882812 17.80664062 C15.03699618 20.87111413 15.01906008 23.93556293 15 27 C10.05 27 5.1 27 0 27 C0 18.09 0 9.18 0 0 Z " fill="#F8FCFD" transform="translate(440,576)"/>
  <path d="M0 0 C10.83984375 -0.09765625 10.83984375 -0.09765625 14 0 C16.07864192 2.07864192 15.18513792 6.39187889 15.1875 9.25 C15.19974609 10.01441406 15.21199219 10.77882813 15.22460938 11.56640625 C15.22750977 12.68595703 15.22750977 12.68595703 15.23046875 13.828125 C15.23457764 14.5077832 15.23868652 15.18744141 15.24291992 15.88769531 C15 18 15 18 13 23 C8.71 23 4.42 23 0 23 C0 15.41 0 7.82 0 0 Z " fill="#F3FAFB" transform="translate(440,545)"/>
  <path d="M0 0 C0.33 0.66 0.66 1.32 1 2 C4.02934491 2.65772428 4.02934491 2.65772428 7 3 C7.7734375 4.6796875 7.7734375 4.6796875 8 7 C6.1640625 9.5078125 6.1640625 9.5078125 3.625 12.125 C0.43315621 15.29322361 0.43315621 15.29322361 -2 19 C-6.455 18.01 -6.455 18.01 -11 17 C-9.52869627 12.6426774 -7.16919385 9.28065866 -4.375 5.6875 C-3.95476563 5.13771484 -3.53453125 4.58792969 -3.1015625 4.02148438 C-2.07279961 2.67707832 -1.0370991 1.33798587 0 0 Z " fill="#25B1CB" transform="translate(977,264)"/>
</svg>
